<svg width="45" height="45" viewBox="0 0 45 45" fill="none" xmlns="http://www.w3.org/2000/svg">
<circle cx="22.5" cy="22.5" r="21.5" fill="#F3DB5B" stroke="#C76236" stroke-width="2"/>
<path d="M39.9884 22.8814C39.9884 32.7229 32.1477 40.6864 22.4936 40.6864C12.8395 40.6864 4.99875 32.7229 4.99875 22.8814C4.99875 13.0398 12.8395 5.07628 22.4936 5.07628C32.1477 5.07628 39.9884 13.0398 39.9884 22.8814Z" fill="#8A1EBD" stroke="#C76236"/>
<path d="M18.1369 32.8291L19.9823 31.8905C20.5476 31.603 20.8619 30.9827 20.7593 30.3568C20.614 29.4702 21.2982 28.6648 22.1966 28.6648H23.1835C24.1735 28.6648 24.9761 29.4674 24.9761 30.4574C24.9761 31.0518 25.2707 31.6075 25.7626 31.9411L26.9374 32.7378C27.3972 33.0496 27.6725 33.599 27.6725 34.1546C27.6725 34.7386 27.3733 35.2634 26.8409 35.5035C23.842 36.8559 20.2725 36.1746 18.1962 35.4189C17.6627 35.2247 17.3363 34.7023 17.3363 34.1345C17.3363 33.5834 17.6457 33.0789 18.1369 32.8291Z" fill="#F3DB5B" stroke="#C76236"/>
<path d="M30.6928 20.3583C30.7159 20.7527 30.74 21.1662 30.7677 21.6004C30.7577 25.4626 27.0322 29.0471 22.2757 29.9849C17.102 29.0501 13.7917 25.3966 13.7917 21.5848C13.7917 19.4697 13.8205 17.8626 13.9906 16.6273C14.1607 15.3926 14.4633 14.6035 14.9526 14.0687C15.4374 13.5388 16.1703 13.1885 17.3602 12.9781C18.5552 12.7668 20.1445 12.7074 22.2797 12.7074C24.5136 12.7074 26.1184 12.854 27.2832 13.1665C28.4352 13.4755 29.1232 13.9375 29.5716 14.5531C30.0313 15.1841 30.2842 16.0364 30.4422 17.2187C30.5614 18.1113 30.6218 19.1437 30.6928 20.3583Z" fill="#F3DB5B" stroke="#C76236"/>
<path d="M29.4444 14.6483C29.541 14.9432 29.5682 15.2023 29.501 15.4301C29.4378 15.6446 29.2678 15.9089 28.8092 16.1748C27.8506 16.7305 25.8032 17.1929 21.6953 17.1927C18.099 17.1925 16.3124 16.7665 15.4308 16.2328C15.0099 15.9781 14.8065 15.7052 14.6975 15.441C14.5972 15.1978 14.5636 14.9308 14.5568 14.626C14.9972 13.9033 15.6056 13.4404 16.6329 13.1447C17.7498 12.8232 19.3381 12.7069 21.6952 12.7069C24.1708 12.7069 26.012 12.7953 27.3053 13.1085C28.5864 13.4188 29.2044 13.9158 29.4444 14.6483Z" fill="#F3DB5B" stroke="#C76236"/>
<ellipse cx="22.7291" cy="14.9503" rx="5.84223" ry="0.914301" fill="#C76236"/>
<path d="M34.4135 18.1503C33.9374 16.6973 32.9094 16.3668 32.0083 16.5748C31.4214 16.7103 30.633 16.4819 30.4892 15.8969C30.4162 15.5997 30.5228 15.2815 30.7832 15.1206C31.661 14.5779 32.7278 14.3479 34.276 15.0251C35.2902 15.4687 35.9959 16.4166 36.4564 17.4233C36.9233 18.4439 37.2997 19.593 36.6606 20.8932C36.2112 21.8075 33.5147 23.6362 32.6159 24.0933C31.7171 24.5504 33.0653 25.9219 32.6159 26.379C32.6092 26.3859 32.6021 26.3926 32.5949 26.3991C31.7123 27.1924 30.1371 25.7553 30.4802 24.6192C30.5391 24.4243 30.646 24.2436 30.8183 24.0933L33.2195 21.9997C33.7112 21.571 34.3717 21.2422 34.5911 20.6278C34.771 20.1239 34.8005 19.3314 34.4135 18.1503Z" fill="#F3DB5B" stroke="#C76236"/>
<path d="M9.58648 18.4932C10.0626 17.0401 11.0906 16.7096 11.9917 16.9176C12.5786 17.0531 13.367 16.8247 13.5108 16.2398C13.5839 15.9425 13.4772 15.6244 13.2168 15.4634C12.3391 14.9207 11.2722 14.6908 9.72406 15.3679C8.7098 15.8116 8.00417 16.7594 7.54362 17.7661C7.07668 18.7868 6.70035 19.9358 7.33947 21.2361C7.78887 22.1504 10.4853 23.979 11.3841 24.4361C12.2829 24.8933 10.9347 26.2647 11.3841 26.7219C11.3909 26.7288 11.3979 26.7355 11.4051 26.742C12.2877 27.5352 13.8629 26.0981 13.5198 24.9621C13.461 24.7672 13.354 24.5864 13.1817 24.4361L10.7806 22.3425C10.2889 21.9138 9.62831 21.585 9.40897 20.9707C9.22906 20.4668 9.19948 19.6742 9.58648 18.4932Z" fill="#F3DB5B" stroke="#C76236"/>
</svg>
