<svg width="45" height="45" viewBox="0 0 45 45" fill="none" xmlns="http://www.w3.org/2000/svg">
<circle cx="22.4999" cy="22.5" r="21.5" fill="#F3DB5B" stroke="#C76236" stroke-width="2"/>
<path d="M39.9883 22.8813C39.9883 32.7229 32.1475 40.6864 22.4934 40.6864C12.8393 40.6864 4.99861 32.7229 4.99861 22.8813C4.99861 13.0398 12.8393 5.07626 22.4934 5.07626C32.1475 5.07626 39.9883 13.0398 39.9883 22.8813Z" fill="#8A1EBD" stroke="#C76236"/>
<rect x="19.4792" y="9.15254" width="5.24094" height="26.6949" rx="2" fill="#F3DB5B" stroke="#C76236" stroke-width="2"/>
<rect width="5.5799" height="27.1898" rx="2" transform="matrix(0.422286 0.906463 -0.878495 0.477752 32.8835 13.4954)" fill="#F3DB5B" stroke="#C76236" stroke-width="2"/>
<rect width="5.57744" height="26.8692" rx="2" transform="matrix(-0.428672 0.90346 -0.874776 -0.484528 35.1251 26.6834)" fill="#F3DB5B" stroke="#C76236" stroke-width="2"/>
<path d="M30.4585 22.5C30.4585 27.6065 26.6447 31.6117 22.0997 31.6117C17.5547 31.6117 13.7409 27.6065 13.7409 22.5C13.7409 17.3935 17.5547 13.3883 22.0997 13.3883C26.6447 13.3883 30.4585 17.3935 30.4585 22.5Z" fill="#F3DB5B" stroke="#C76236" stroke-width="2"/>
<path d="M25.9664 22.5C25.9664 24.9259 24.1638 26.7581 22.0998 26.7581C20.0358 26.7581 18.2332 24.9259 18.2332 22.5C18.2332 20.0741 20.0358 18.2419 22.0998 18.2419C24.1638 18.2419 25.9664 20.0741 25.9664 22.5Z" fill="#BB80D7" stroke="#C76236" stroke-width="2"/>
</svg>
