<svg width="342" height="82" viewBox="0 0 342 82" fill="none" xmlns="http://www.w3.org/2000/svg">
<path d="M33.1958 65.9484C28.3559 67.0777 17.8004 69.4875 13.1386 70.3663C12.8439 70.4219 12.536 70.4508 12.2362 70.4408C3.11788 70.1373 3.94924 60.7542 4.16122 56.505C4.19608 55.8063 4.35211 55.1165 4.60796 54.4653C7.78876 46.3702 2.67698 45.3354 2.1958 42.4484C1.73049 39.6565 1.26516 37.2977 1.20283 34.9689C1.19357 34.6229 1.15413 34.2731 1.10053 33.9311C0.0642278 27.32 7.27754 27.2832 11.809 28.2403C12.3983 28.3648 13.0075 28.4149 13.6064 28.351C23.7037 27.2733 29.4533 26.7249 31.8674 26.0984C32.8229 25.8505 33.6377 25.14 34.5733 24.8251C37.6969 23.7739 40.9544 25.0949 42.6958 29.4484L52.1958 28.4484C53.7118 28.4484 53.3892 25.6905 52.7958 23.833C52.4955 22.8927 52.1563 21.9106 52.3197 20.9371C53.9597 11.1662 71.4637 8.35355 80.1958 6.44836C105.999 2.62564 149.612 1.99956 154.3 1.51515C154.586 1.48563 154.802 1.41063 155.084 1.3589C162.21 0.0538664 220.359 2.51153 251.196 5.44836C274.665 7.68351 284.921 15.5853 287.701 20.026C288.068 20.6137 288.196 21.3064 288.196 21.9997V28.4484H290.696H294.311C295.217 28.4484 296.085 28.7648 296.955 29.0157C297.559 29.1895 298.107 29.1663 298.186 28.5973L298.196 28.4484C300.054 23.9896 305.507 24.9382 308.544 26.1643C308.982 26.3413 309.433 26.4858 309.9 26.5596L318.308 27.8872C318.566 27.9279 318.827 27.9484 319.088 27.9484H327.696C335.469 27.9484 338.772 28.6358 339.812 29.7845C340.369 30.3999 340.401 31.3432 340.53 32.1633C341.094 35.7472 339.134 41.9152 336.853 46.2624C336.44 47.0495 336.193 47.9149 336.252 48.8019C336.463 51.9751 337.196 57.8406 337.196 61.9484C337.196 67.9484 330.196 69.9484 327.696 71.4484C325.756 72.612 318.018 70.1084 314.056 68.5879C313.816 68.4957 313.57 68.4201 313.319 68.366C311.771 68.0331 309.349 67.5733 306.696 67.1874L305.398 75.9484C306.56 78.5196 304.744 80.1022 302.431 80.7696C301.949 80.9088 301.446 80.9215 300.947 80.8753C295.792 80.3985 285.501 79.8997 281.696 78.9484C277.696 77.9484 276.529 74.9484 276.696 73.4484V66.4484V59.6997C268.752 55.3735 254.509 50.962 231.196 49.9484C185.196 47.9484 144.196 47.4484 139.696 47.4484C79.1767 48.2889 70.32 57.6348 64.6958 60.6875L65.1958 73.9616C65.316 74.9573 64.2756 76.0779 63.2877 76.9816C62.5848 77.6245 61.6986 78.0309 60.7642 78.2159C57.1062 78.9404 50.274 80.4484 44.1958 80.4484C37.2572 80.4484 35.6958 78.9484 35.6958 74.4484V65.7421C34.8311 65.7961 33.9833 65.8676 33.1958 65.9484Z" fill="#D52539"/>
<path d="M56.6958 70.4484C57.5519 70.4484 59.4343 70.4484 60.9623 70.4484C61.4489 70.4484 61.9423 70.5039 62.3638 70.7471C63.6978 71.5167 65.1109 73.2587 65.1958 73.9616M56.6958 70.4484C56.1958 68.115 56.4958 63.1484 61.6958 61.9484C62.7322 61.7092 63.6289 61.2666 64.6958 60.6875M56.6958 70.4484L52.1958 28.4484M284.696 66.4484C285.196 68.115 285.296 71.4484 281.696 71.4484C278.096 71.4484 280.696 72.4484 276.696 73.4484M284.696 66.4484L288.196 28.4484M284.696 66.4484C283.78 64.677 281.292 62.2026 276.696 59.6997M276.696 73.4484C276.529 74.9484 277.696 77.9484 281.696 78.9484C285.501 79.8997 295.792 80.3985 300.947 80.8753C301.446 80.9215 301.949 80.9088 302.431 80.7696C304.744 80.1022 306.56 78.5196 305.398 75.9484M276.696 73.4484V66.4484V59.6997M298.196 28.4484C300.054 23.9896 305.507 24.9382 308.544 26.1643C308.982 26.3413 309.433 26.4858 309.9 26.5596L318.308 27.8872C318.566 27.9279 318.827 27.9484 319.088 27.9484C320.433 27.9484 324.637 27.9484 327.696 27.9484C335.469 27.9484 338.772 28.6358 339.812 29.7845C340.369 30.3999 340.401 31.3432 340.53 32.1633C341.094 35.7472 339.134 41.9152 336.853 46.2624C336.44 47.0495 336.193 47.9149 336.252 48.8019C336.463 51.9751 337.196 57.8406 337.196 61.9484C337.196 67.9484 330.196 69.9484 327.696 71.4484C325.756 72.612 318.018 70.1084 314.056 68.5879C313.816 68.4957 313.57 68.4201 313.319 68.366C311.771 68.0331 309.349 67.5733 306.696 67.1874M298.196 28.4484C298.196 29.1613 297.608 29.2036 296.955 29.0157C296.085 28.7648 295.217 28.4484 294.311 28.4484H290.696H288.196M298.196 28.4484L295.696 66.9965M288.196 28.4484V21.9997C288.196 21.3064 288.068 20.6137 287.701 20.026C284.921 15.5853 274.665 7.68351 251.196 5.44836C220.359 2.51153 162.21 0.0538664 155.084 1.3589C154.802 1.41063 154.586 1.48563 154.3 1.51515C149.612 1.99956 105.999 2.62564 80.1958 6.44836C71.4637 8.35355 53.9597 11.1662 52.3197 20.9371C52.1563 21.9106 52.4955 22.8927 52.7958 23.833C53.3892 25.6905 53.7118 28.4484 52.1958 28.4484M52.1958 28.4484L42.6958 29.4484M42.6958 29.4484C40.9544 25.0949 37.6969 23.7739 34.5733 24.8251C33.6377 25.14 32.8229 25.8505 31.8674 26.0984C29.4533 26.7249 23.7037 27.2733 13.6064 28.351C13.0075 28.4149 12.3983 28.3648 11.809 28.2403C7.27754 27.2832 0.0642278 27.32 1.10053 33.9311C1.15413 34.2731 1.19357 34.6229 1.20283 34.9689C1.26516 37.2977 1.73049 39.6565 2.1958 42.4484C2.67698 45.3354 7.78876 46.3702 4.60796 54.4653C4.35211 55.1165 4.19608 55.8063 4.16122 56.505C3.94924 60.7542 3.11788 70.1373 12.2362 70.4408C12.536 70.4508 12.8439 70.4218 13.1386 70.3663C17.8004 69.4875 28.3559 67.0777 33.1958 65.9484C33.9833 65.8676 34.8311 65.7961 35.6958 65.7421M42.6958 29.4484L44.1958 66.5131M44.1958 66.5131C45.0896 67.2271 44.3812 68.4521 40.6958 70.4484C38.3423 71.7232 36.7197 73.3885 35.6958 74.4484M44.1958 66.5131C43.0434 65.5926 39.2281 65.5215 35.6958 65.7421M295.696 66.9965C294.693 67.8212 296.553 68.7579 298.158 69.7495C298.857 70.1814 299.639 70.5257 300.299 71.0162C301.133 71.6372 302.119 72.6409 303.196 73.4484C304.365 74.3668 305.06 75.1995 305.398 75.9484M295.696 66.9965C296.108 66.6572 296.894 66.4484 298.196 66.4484C300.773 66.4484 303.866 66.7759 306.696 67.1874M306.696 67.1874L305.398 75.9484M276.696 59.6997C268.752 55.3735 254.509 50.962 231.196 49.9484C185.196 47.9484 144.196 47.4484 139.696 47.4484C79.1767 48.2889 70.32 57.6348 64.6958 60.6875M64.6958 60.6875L65.1958 73.9616M65.1958 73.9616C65.316 74.9573 64.2756 76.0779 63.2877 76.9816C62.5848 77.6245 61.6986 78.0309 60.7642 78.2159C57.1062 78.9404 50.274 80.4484 44.1958 80.4484C37.2572 80.4484 35.6958 78.9484 35.6958 74.4484M35.6958 65.7421V74.4484" stroke="#EF5466" stroke-width="2"/>
</svg>
