<svg width="45" height="45" viewBox="0 0 45 45" fill="none" xmlns="http://www.w3.org/2000/svg">
<circle cx="22.4999" cy="22.5" r="21.5" fill="#F3DB5B" stroke="#C76236" stroke-width="2"/>
<path d="M39.9883 22.8814C39.9883 32.7229 32.1476 40.6864 22.4935 40.6864C12.8394 40.6864 4.99863 32.7229 4.99863 22.8814C4.99863 13.0398 12.8394 5.07628 22.4935 5.07628C32.1476 5.07628 39.9883 13.0398 39.9883 22.8814Z" fill="#8A1EBD" stroke="#C76236"/>
<path d="M22.3633 17.1619H20.0833L20.3713 16.0579C21.2513 16.0579 22.1633 15.9379 23.1073 15.6979C24.0513 15.4579 25.1713 14.9539 26.4673 14.1859L22.6513 32.1379H19.1953L22.3633 17.1619Z" fill="white"/>
<path d="M22.3633 17.1619L23.3417 17.3689L23.597 16.1619H22.3633V17.1619ZM20.0833 17.1619L19.1157 16.9095L18.789 18.1619H20.0833V17.1619ZM20.3713 16.0579V15.0579H19.5987L19.4037 15.8055L20.3713 16.0579ZM23.1073 15.6979L22.8609 14.7288L22.8609 14.7288L23.1073 15.6979ZM26.4673 14.1859L27.4455 14.3938L27.9197 12.1629L25.9575 13.3256L26.4673 14.1859ZM22.6513 32.1379V33.1379H23.4611L23.6295 32.3458L22.6513 32.1379ZM19.1953 32.1379L18.217 31.931L17.9616 33.1379H19.1953V32.1379ZM22.3633 16.1619H20.0833V18.1619H22.3633V16.1619ZM21.0509 17.4143L21.3389 16.3103L19.4037 15.8055L19.1157 16.9095L21.0509 17.4143ZM20.3713 17.0579C21.3427 17.0579 22.3377 16.9254 23.3537 16.6671L22.8609 14.7288C21.989 14.9504 21.1599 15.0579 20.3713 15.0579V17.0579ZM23.3537 16.6671C24.4263 16.3944 25.6386 15.8394 26.9771 15.0462L25.9575 13.3256C24.704 14.0684 23.6764 14.5214 22.8609 14.7288L23.3537 16.6671ZM25.4892 13.978L21.6732 31.93L23.6295 32.3458L27.4455 14.3938L25.4892 13.978ZM22.6513 31.1379H19.1953V33.1379H22.6513V31.1379ZM20.1737 32.3449L23.3417 17.3689L21.385 16.955L18.217 31.931L20.1737 32.3449Z" fill="#C76236"/>
</svg>
