<svg width="258" height="150" viewBox="0 0 258 150" fill="none" xmlns="http://www.w3.org/2000/svg">
<rect x="122.633" y="128.464" width="16.0714" height="16.0714" rx="3" transform="rotate(-50 122.633 128.464)" fill="white"/>
<rect x="108.474" y="116.584" width="16.0714" height="16.0714" rx="3" transform="rotate(-50 108.474 116.584)" fill="white"/>
<rect x="94.3163" y="104.704" width="16.0714" height="16.0714" rx="3" transform="rotate(-50 94.3163 104.704)" fill="white"/>
<rect x="80.1581" y="92.8241" width="16.0714" height="16.0714" rx="3" transform="rotate(-50 80.1581 92.8241)" fill="white"/>
<rect x="66" y="80.944" width="16.0714" height="16.0714" rx="3" transform="rotate(-50 66 80.944)" fill="white"/>
<rect x="134.513" y="114.306" width="16.0714" height="16.0714" rx="3" transform="rotate(-50 134.513 114.306)" fill="white"/>
<rect x="120.355" y="102.426" width="16.0714" height="16.0714" rx="3" transform="rotate(-50 120.355 102.426)" fill="white"/>
<rect x="106.196" y="90.546" width="16.0714" height="16.0714" rx="3" transform="rotate(-50 106.196 90.546)" fill="white"/>
<rect x="92.0382" y="78.666" width="16.0714" height="16.0714" rx="3" transform="rotate(-50 92.0382 78.666)" fill="white"/>
<rect x="146.393" y="100.148" width="16.0714" height="16.0714" rx="3" transform="rotate(-50 146.393 100.148)" fill="white"/>
<rect x="132.235" y="88.268" width="16.0714" height="16.0714" rx="3" transform="rotate(-50 132.235 88.268)" fill="white"/>
<rect x="118.076" y="76.3879" width="16.0714" height="16.0714" rx="3" transform="rotate(-50 118.076 76.3879)" fill="white"/>
<rect x="115.798" y="50.3497" width="16.0714" height="16.0714" rx="3" transform="rotate(-50 115.798 50.3497)" fill="white"/>
<rect x="158.273" y="85.99" width="16.0714" height="16.0714" rx="3" transform="rotate(-50 158.273 85.99)" fill="white"/>
<rect x="144.115" y="74.1098" width="16.0714" height="16.0714" rx="3" transform="rotate(-50 144.115 74.1098)" fill="white"/>
<rect x="170.153" y="71.8318" width="16.0714" height="16.0714" rx="3" transform="rotate(-50 170.153 71.8318)" fill="white"/>
<circle cx="129" cy="75" r="72.5" fill="url(#paint0_linear_109_1007)" stroke="#AA8F04" stroke-width="5"/>
<path d="M47.7003 28.032C44.4576 29.0987 41.9403 30.8693 40.1483 33.344C38.3989 35.776 37.5243 38.8053 37.5243 42.432C37.5243 44.0533 37.6736 45.1627 37.9723 45.76C38.2709 46.3573 38.4203 46.72 38.4203 46.848C33.8549 46.848 31.5723 44.9067 31.5723 41.024C31.5723 38.3787 32.5749 35.7333 34.5803 33.088C36.6283 30.4 39.2309 28.224 42.3883 26.56C45.5883 24.8533 48.7669 24 51.9243 24C53.5029 24 55.1243 24.2987 56.7883 24.896L55.3163 58.624L69.3963 24.896H78.6123L71.8923 72H62.6763L66.7723 43.264L54.7403 72H45.9722L47.2523 43.136L36.5642 72H31.4443L47.7003 28.032ZM86.6833 72.384C83.5259 72.384 81.0726 71.5733 79.3233 69.952C77.5739 68.288 76.6992 65.7067 76.6992 62.208C76.6992 59.264 77.2752 56.0213 78.4273 52.48C79.5793 48.9387 81.4566 45.888 84.0593 43.328C86.6619 40.7253 89.9686 39.424 93.9792 39.424C98.6726 39.424 101.019 41.472 101.019 45.568C101.019 47.9573 100.337 50.1547 98.9713 52.16C97.6059 54.1653 95.7926 55.7867 93.5312 57.024C91.2699 58.2187 88.8593 58.9013 86.2993 59.072C86.2139 60.352 86.1713 61.2053 86.1713 61.632C86.1713 63.7227 86.5339 65.152 87.2593 65.92C87.9846 66.6453 89.1579 67.008 90.7793 67.008C93.0833 67.008 95.0459 66.4747 96.6673 65.408C98.3313 64.3413 100.145 62.72 102.107 60.544H104.283C99.5473 68.4373 93.6806 72.384 86.6833 72.384ZM86.8113 56C88.3899 55.9147 89.8833 55.36 91.2913 54.336C92.7419 53.312 93.8939 52.0107 94.7473 50.432C95.6433 48.8533 96.0913 47.1893 96.0913 45.44C96.0913 43.6907 95.5579 42.816 94.4913 42.816C92.9553 42.816 91.4406 44.16 89.9473 46.848C88.4966 49.536 87.4513 52.5867 86.8113 56ZM141.006 72.384C138.403 72.384 136.483 71.7013 135.246 70.336C134.051 68.928 133.454 67.2 133.454 65.152C133.454 64.256 133.56 63.2533 133.774 62.144C133.987 60.992 134.2 59.8827 134.414 58.816C134.67 57.7493 134.84 57.0667 134.926 56.768C135.267 55.2747 135.587 53.8027 135.886 52.352C136.184 50.9013 136.334 49.728 136.334 48.832C136.334 46.656 135.566 45.568 134.03 45.568C132.92 45.568 131.939 46.1227 131.086 47.232C130.232 48.2987 129.55 49.7067 129.038 51.456L124.686 72H115.47L120.142 49.92C120.27 49.408 120.334 48.8747 120.334 48.32C120.334 46.4427 119.694 45.504 118.414 45.504C117.219 45.504 116.174 46.0587 115.278 47.168C114.424 48.2347 113.742 49.664 113.23 51.456L108.878 72H99.6617L106.446 40H115.662L114.958 43.328C117.134 40.896 119.736 39.68 122.766 39.68C126.52 39.68 128.718 41.5147 129.358 45.184C131.704 41.5573 134.67 39.744 138.254 39.744C140.43 39.744 142.158 40.3413 143.438 41.536C144.718 42.7307 145.358 44.544 145.358 46.976C145.358 48.2133 145.208 49.6 144.91 51.136C144.611 52.6293 144.184 54.464 143.63 56.64C143.288 57.9627 142.968 59.264 142.67 60.544C142.414 61.7813 142.286 62.7627 142.286 63.488C142.286 64.3413 142.478 65.0027 142.862 65.472C143.246 65.9413 143.907 66.176 144.846 66.176C146.126 66.176 147.15 65.728 147.918 64.832C148.686 63.8933 149.454 62.464 150.222 60.544H152.91C151.331 65.2373 149.496 68.3947 147.406 70.016C145.358 71.5947 143.224 72.384 141.006 72.384ZM159.563 72.256C156.405 72.256 153.909 71.4453 152.075 69.824C150.24 68.2027 149.323 65.6427 149.323 62.144C149.323 59.2427 149.92 56.0213 151.115 52.48C152.309 48.9387 154.229 45.888 156.875 43.328C159.52 40.7253 162.848 39.424 166.859 39.424C172.32 39.424 175.051 42.8373 175.051 49.664V49.728C175.179 49.7707 175.413 49.792 175.755 49.792C177.163 49.792 178.784 49.4293 180.619 48.704C182.453 47.936 184.117 47.0187 185.611 45.952L186.187 47.68C184.949 49.0027 183.328 50.1333 181.323 51.072C179.36 51.968 177.205 52.608 174.859 52.992C174.517 56.8747 173.643 60.2667 172.235 63.168C170.827 66.0693 169.013 68.3093 166.795 69.888C164.576 71.4667 162.165 72.256 159.563 72.256ZM162.123 66.496C163.147 66.496 164.171 65.92 165.195 64.768C166.219 63.5733 167.115 61.9733 167.883 59.968C168.651 57.92 169.205 55.6587 169.547 53.184C168.395 52.928 167.819 52.032 167.819 50.496C167.819 48.7467 168.48 47.5947 169.803 47.04C169.717 45.632 169.504 44.672 169.163 44.16C168.821 43.6053 168.224 43.328 167.371 43.328C165.963 43.328 164.597 44.352 163.275 46.4C161.952 48.448 160.885 50.9013 160.075 53.76C159.264 56.6187 158.859 59.136 158.859 61.312C158.859 63.36 159.093 64.7467 159.563 65.472C160.032 66.1547 160.885 66.496 162.123 66.496ZM182.696 40H191.912L191.08 43.968C192.53 42.688 193.832 41.7067 194.984 41.024C196.178 40.3413 197.458 40 198.824 40C200.189 40 201.256 40.4693 202.024 41.408C202.834 42.3467 203.24 43.4773 203.24 44.8C203.24 46.0373 202.834 47.1253 202.024 48.064C201.213 49.0027 200.082 49.472 198.632 49.472C197.693 49.472 197.053 49.2587 196.712 48.832C196.413 48.3627 196.178 47.7013 196.008 46.848C195.88 46.2933 195.752 45.888 195.624 45.632C195.496 45.376 195.261 45.248 194.92 45.248C194.024 45.248 193.256 45.44 192.616 45.824C192.018 46.1653 191.229 46.784 190.248 47.68L185.128 72H175.912L182.696 40ZM212.39 88C210.385 88 208.614 87.3387 207.078 86.016C205.585 84.736 204.838 83.0933 204.838 81.088C204.838 79.2107 205.308 77.6747 206.246 76.48C207.185 75.2853 208.401 74.3467 209.894 73.664C211.388 72.9813 213.393 72.256 215.91 71.488L216.55 68.672C214.374 71.1467 211.772 72.384 208.742 72.384C206.694 72.384 205.03 71.744 203.75 70.464C202.513 69.184 201.894 67.264 201.894 64.704C201.894 63.6373 202.065 62.2507 202.406 60.544L206.758 40H215.974L211.366 61.76C211.238 62.272 211.174 62.8053 211.174 63.36C211.174 65.2373 211.814 66.176 213.094 66.176C214.289 66.176 215.313 65.6853 216.166 64.704C217.02 63.68 217.702 62.2933 218.214 60.544L222.566 40H231.846L224.038 77.12C223.185 81.216 221.67 84.0533 219.494 85.632C217.361 87.2107 214.993 88 212.39 88ZM210.918 82.304C211.686 82.304 212.412 81.8987 213.094 81.088C213.777 80.32 214.31 79.0613 214.694 77.312L215.462 73.536C213.201 74.304 211.452 75.2 210.214 76.224C208.977 77.248 208.358 78.5707 208.358 80.192C208.358 80.704 208.614 81.1733 209.126 81.6C209.638 82.0693 210.236 82.304 210.918 82.304Z" fill="#FFE603"/>
<path d="M47.7002 28.032L48.6382 28.3788L49.3571 26.4343L47.3878 27.0821L47.7002 28.032ZM40.1483 33.344L39.3383 32.7575L39.3364 32.7601L40.1483 33.344ZM37.9723 45.76L38.8667 45.3128V45.3128L37.9723 45.76ZM38.4202 46.848V47.848H39.4202V46.848H38.4202ZM34.5802 33.088L33.7848 32.482L33.7833 32.4839L34.5802 33.088ZM42.3883 26.56L42.8545 27.4447L42.8588 27.4424L42.3883 26.56ZM56.7883 24.896L57.7873 24.9396L57.8194 24.2037L57.1261 23.9548L56.7883 24.896ZM55.3163 58.624L54.3172 58.5804L56.2391 59.0092L55.3163 58.624ZM69.3963 24.896V23.896H68.7301L68.4734 24.5108L69.3963 24.896ZM78.6123 24.896L79.6022 25.0372L79.765 23.896H78.6123V24.896ZM71.8923 72V73H72.7597L72.8822 72.1412L71.8923 72ZM62.6763 72L61.6863 71.8589L61.5236 73H62.6763V72ZM66.7723 43.264L67.7622 43.4051L65.8498 42.8778L66.7723 43.264ZM54.7402 72V73H55.4057L55.6627 72.3862L54.7402 72ZM45.9723 72L44.9732 71.9557L44.9269 73H45.9723V72ZM47.2523 43.136L48.2513 43.1803L46.3145 42.7887L47.2523 43.136ZM36.5643 72V73H37.2603L37.502 72.3472L36.5643 72ZM31.4443 72L30.5063 71.6532L30.0084 73H31.4443V72ZM47.3878 27.0821C43.9697 28.2064 41.2681 30.0926 39.3383 32.7575L40.9582 33.9305C42.6124 31.6461 44.9455 29.9909 48.0127 28.9819L47.3878 27.0821ZM39.3364 32.7601C37.4408 35.3954 36.5243 38.6408 36.5243 42.432H38.5243C38.5243 38.9698 39.357 36.1566 40.9601 33.9279L39.3364 32.7601ZM36.5243 42.432C36.5243 43.2694 36.5626 43.9998 36.6452 44.6134C36.726 45.2139 36.857 45.7656 37.0778 46.2072L38.8667 45.3128C38.7888 45.1571 38.6958 44.8554 38.6273 44.3466C38.5606 43.8509 38.5243 43.2159 38.5243 42.432H36.5243ZM37.0778 46.2072C37.2227 46.4969 37.3224 46.7121 37.3836 46.8607C37.4144 46.9357 37.4296 46.9796 37.4356 46.9992C37.4384 47.0085 37.4362 47.0026 37.4327 46.9851C37.43 46.9718 37.4202 46.9213 37.4202 46.848H39.4202C39.4202 46.6616 39.3736 46.4978 39.3489 46.4168C39.3176 46.3138 39.2767 46.2057 39.2329 46.0993C39.1448 45.8852 39.0205 45.6204 38.8667 45.3128L37.0778 46.2072ZM38.4202 45.848C36.2557 45.848 34.8188 45.3844 33.9321 44.6302C33.0764 43.9025 32.5723 42.765 32.5723 41.024H30.5723C30.5723 43.1657 31.2094 44.9402 32.6364 46.1538C34.0324 47.341 36.0195 47.848 38.4202 47.848V45.848ZM32.5723 41.024C32.5723 38.6472 33.4695 36.2086 35.3772 33.6921L33.7833 32.4839C31.6803 35.2581 30.5723 38.1101 30.5723 41.024H32.5723ZM35.3757 33.694C37.3306 31.1282 39.8185 29.0447 42.8545 27.4447L41.922 25.6753C38.6434 27.4033 35.9259 29.6718 33.7848 32.482L35.3757 33.694ZM42.8588 27.4424C45.9357 25.8014 48.954 25 51.9243 25V23C48.5798 23 45.2408 23.9053 41.9177 25.6776L42.8588 27.4424ZM51.9243 25C53.3748 25 54.8819 25.2741 56.4504 25.8372L57.1261 23.9548C55.3666 23.3232 53.631 23 51.9243 23V25ZM55.7892 24.8524L54.3172 58.5804L56.3153 58.6676L57.7873 24.9396L55.7892 24.8524ZM56.2391 59.0092L70.3191 25.2812L68.4734 24.5108L54.3934 58.2388L56.2391 59.0092ZM69.3963 25.896H78.6123V23.896H69.3963V25.896ZM77.6223 24.7548L70.9023 71.8588L72.8822 72.1412L79.6022 25.0372L77.6223 24.7548ZM71.8923 71H62.6763V73H71.8923V71ZM63.6662 72.1411L67.7622 43.4051L65.7823 43.1229L61.6863 71.8589L63.6662 72.1411ZM65.8498 42.8778L53.8178 71.6138L55.6627 72.3862L67.6947 43.6502L65.8498 42.8778ZM54.7402 71H45.9723V73H54.7402V71ZM46.9713 72.0443L48.2513 43.1803L46.2532 43.0917L44.9732 71.9557L46.9713 72.0443ZM46.3145 42.7887L35.6265 71.6528L37.502 72.3472L48.19 43.4832L46.3145 42.7887ZM36.5643 71H31.4443V73H36.5643V71ZM32.3822 72.3468L48.6382 28.3788L46.7623 27.6852L30.5063 71.6532L32.3822 72.3468ZM79.3232 69.952L78.634 70.6766L78.6435 70.6854L79.3232 69.952ZM78.4273 52.48L79.3782 52.7893L78.4273 52.48ZM84.0592 43.328L84.7605 44.041L84.7664 44.0351L84.0592 43.328ZM98.9713 52.16L99.7979 52.7228L98.9713 52.16ZM93.5312 57.024L93.9984 57.9082L94.0048 57.9048L94.0113 57.9013L93.5312 57.024ZM86.2992 59.072L86.2327 58.0742L85.3597 58.1324L85.3015 59.0055L86.2992 59.072ZM87.2592 65.92L86.5322 66.6066L86.542 66.617L86.5521 66.6271L87.2592 65.92ZM96.6673 65.408L96.1275 64.5661L96.1176 64.5726L96.6673 65.408ZM102.107 60.544V59.544H101.663L101.365 59.8742L102.107 60.544ZM104.283 60.544L105.141 61.0585L106.049 59.544H104.283V60.544ZM86.8112 56L85.8284 55.8157L85.5937 57.0673L86.8652 56.9985L86.8112 56ZM91.2913 54.336L90.7145 53.5189L90.7031 53.5273L91.2913 54.336ZM94.7473 50.432L93.8776 49.9384L93.8725 49.9474L93.8675 49.9565L94.7473 50.432ZM89.9473 46.848L89.073 46.3623L89.0672 46.3731L89.9473 46.848ZM86.6833 71.384C83.6944 71.384 81.5141 70.6191 80.003 69.2186L78.6435 70.6854C80.631 72.5275 83.3574 73.384 86.6833 73.384V71.384ZM80.0125 69.2274C78.5365 67.8234 77.6992 65.557 77.6992 62.208H75.6992C75.6992 65.8564 76.6114 68.7526 78.634 70.6766L80.0125 69.2274ZM77.6992 62.208C77.6992 59.3926 78.2505 56.256 79.3782 52.7893L77.4763 52.1707C76.3 55.7867 75.6992 59.1354 75.6992 62.208H77.6992ZM79.3782 52.7893C80.4816 49.3974 82.2746 46.4861 84.7605 44.0409L83.358 42.6151C80.6386 45.2899 78.6769 48.4799 77.4763 52.1707L79.3782 52.7893ZM84.7664 44.0351C87.1637 41.6377 90.2076 40.424 93.9792 40.424V38.424C89.7296 38.424 86.1601 39.8129 83.3521 42.6209L84.7664 44.0351ZM93.9792 40.424C96.2027 40.424 97.6835 40.912 98.6017 41.7134C99.4939 42.4921 100.019 43.7122 100.019 45.568H102.019C102.019 43.3278 101.371 41.4759 99.9168 40.2066C98.4884 38.96 96.4492 38.424 93.9792 38.424V40.424ZM100.019 45.568C100.019 47.7533 99.3989 49.7551 98.1447 51.5972L99.7979 52.7228C101.274 50.5542 102.019 48.1613 102.019 45.568H100.019ZM98.1447 51.5972C96.8739 53.4636 95.1827 54.9805 93.0512 56.1467L94.0113 57.9013C96.4025 56.5929 98.3379 54.867 99.7979 52.7228L98.1447 51.5972ZM93.0641 56.1398C90.9273 57.2687 88.6532 57.9129 86.2327 58.0742L86.3658 60.0698C89.0653 59.8898 91.6125 59.1686 93.9984 57.9082L93.0641 56.1398ZM85.3015 59.0055C85.2165 60.2799 85.1712 61.1665 85.1712 61.632H87.1712C87.1712 61.2442 87.2113 60.4241 87.297 59.1385L85.3015 59.0055ZM85.1712 61.632C85.1712 63.7617 85.5248 65.54 86.5322 66.6066L87.9863 65.2334C87.543 64.764 87.1712 63.6837 87.1712 61.632H85.1712ZM86.5521 66.6271C87.5491 67.624 89.0416 68.008 90.7793 68.008V66.008C89.2742 66.008 88.4201 65.6666 87.9664 65.2129L86.5521 66.6271ZM90.7793 68.008C93.2414 68.008 95.4038 67.4362 97.2169 66.2434L96.1176 64.5726C94.688 65.5131 92.9251 66.008 90.7793 66.008V68.008ZM97.2069 66.2499C98.9726 65.118 100.853 63.4273 102.85 61.2138L101.365 59.8742C99.4359 62.0127 97.6899 63.5646 96.1276 64.5661L97.2069 66.2499ZM102.107 61.544H104.283V59.544H102.107V61.544ZM103.426 60.0295C98.8057 67.7296 93.2195 71.384 86.6833 71.384V73.384C94.1417 73.384 100.289 69.1451 105.141 61.0585L103.426 60.0295ZM86.8652 56.9985C88.6558 56.9018 90.3318 56.2703 91.8794 55.1447L90.7031 53.5273C89.4347 54.4497 88.124 54.9276 86.7573 55.0015L86.8652 56.9985ZM91.8679 55.153C93.446 54.0391 94.7011 52.6203 95.627 50.9075L93.8675 49.9565C93.0867 51.401 92.0379 52.5849 90.7146 53.519L91.8679 55.153ZM95.6169 50.9256C96.595 49.2024 97.0912 47.369 97.0912 45.44H95.0912C95.0912 47.0096 94.6915 48.5043 93.8776 49.9384L95.6169 50.9256ZM97.0912 45.44C97.0912 44.4963 96.9532 43.6208 96.545 42.9514C96.0879 42.2017 95.3558 41.816 94.4912 41.816V43.816C94.6189 43.816 94.6819 43.8412 94.7116 43.8574C94.7394 43.8727 94.7839 43.9047 94.8375 43.9926C94.9626 44.1979 95.0912 44.6344 95.0912 45.44H97.0912ZM94.4912 41.816C93.4095 41.816 92.4205 42.2943 91.5395 43.076C90.6659 43.8512 89.8492 44.9654 89.0731 46.3624L90.8214 47.3336C91.5387 46.0426 92.2259 45.1408 92.867 44.572C93.5007 44.0097 94.037 43.816 94.4912 43.816V41.816ZM89.0672 46.3731C87.5613 49.1635 86.4849 52.3144 85.8284 55.8157L87.7941 56.1843C88.4176 52.8589 89.4319 49.9085 90.8273 47.3229L89.0672 46.3731ZM135.246 70.336L134.483 70.983L134.494 70.9954L134.505 71.0075L135.246 70.336ZM133.774 62.144L134.756 62.3329L134.757 62.3261L133.774 62.144ZM134.414 58.816L133.441 58.5826L133.437 58.6012L133.433 58.6199L134.414 58.816ZM134.926 56.768L135.887 57.0427L135.895 57.0169L135.901 56.9908L134.926 56.768ZM135.886 52.352L134.906 52.1503V52.1503L135.886 52.352ZM131.086 47.232L131.867 47.8567L131.873 47.8493L131.878 47.8417L131.086 47.232ZM129.038 51.456L128.078 51.1751L128.067 51.2116L128.059 51.2488L129.038 51.456ZM124.686 72V73H125.496L125.664 72.2072L124.686 72ZM115.47 72L114.491 71.793L114.236 73H115.47V72ZM120.142 49.92L119.172 49.6775L119.167 49.6951L119.163 49.713L120.142 49.92ZM115.278 47.168L114.5 46.5397L114.497 46.5433L115.278 47.168ZM113.23 51.456L112.268 51.1813L112.259 51.2147L112.251 51.2488L113.23 51.456ZM108.878 72V73H109.688L109.856 72.2072L108.878 72ZM99.6618 72L98.6835 71.7926L98.4275 73H99.6618V72ZM106.446 40V39H105.636L105.467 39.7926L106.446 40ZM115.662 40L116.64 40.207L116.895 39H115.662V40ZM114.958 43.328L113.979 43.121L113.204 46.7882L115.703 43.9948L114.958 43.328ZM129.358 45.184L128.373 45.3558L128.811 47.8696L130.197 45.7272L129.358 45.184ZM143.438 41.536L142.755 42.2671L143.438 41.536ZM144.91 51.136L145.89 51.3321L145.891 51.3269L144.91 51.136ZM143.63 56.64L144.598 56.8899L144.599 56.887L143.63 56.64ZM142.67 60.544L141.696 60.3168L141.693 60.329L141.69 60.3414L142.67 60.544ZM147.918 64.832L148.677 65.4828L148.684 65.4741L148.692 65.4652L147.918 64.832ZM150.222 60.544V59.544H149.545L149.293 60.1726L150.222 60.544ZM152.91 60.544L153.858 60.8628L154.301 59.544H152.91V60.544ZM147.406 70.016L148.016 70.808L148.019 70.8062L147.406 70.016ZM141.006 71.384C138.566 71.384 136.967 70.7459 135.987 69.6645L134.505 71.0075C135.999 72.6567 138.24 73.384 141.006 73.384V71.384ZM136.008 69.689C134.984 68.4818 134.454 66.9907 134.454 65.152H132.454C132.454 67.4093 133.118 69.3742 134.483 70.983L136.008 69.689ZM134.454 65.152C134.454 64.3332 134.551 63.3952 134.756 62.3328L132.792 61.9552C132.569 63.1114 132.454 64.1788 132.454 65.152H134.454ZM134.757 62.3261C134.97 61.1784 135.182 60.0738 135.394 59.0121L133.433 58.6199C133.219 59.6916 133.005 60.8056 132.79 61.9619L134.757 62.3261ZM135.386 59.0494C135.644 57.9768 135.809 57.3166 135.887 57.0427L133.964 56.4933C133.872 56.8167 133.696 57.5219 133.441 58.5826L135.386 59.0494ZM135.901 56.9908C136.243 55.4907 136.565 54.0116 136.865 52.5536L134.906 52.1503C134.609 53.5937 134.291 55.0586 133.951 56.5452L135.901 56.9908ZM136.865 52.5537C137.17 51.0736 137.334 49.8252 137.334 48.832H135.334C135.334 49.6308 135.199 50.7291 134.906 52.1503L136.865 52.5537ZM137.334 48.832C137.334 47.6568 137.132 46.5966 136.575 45.8073C135.973 44.9542 135.065 44.568 134.03 44.568V46.568C134.53 46.568 134.775 46.7258 134.941 46.9607C135.152 47.2594 135.334 47.8312 135.334 48.832H137.334ZM134.03 44.568C132.53 44.568 131.281 45.3377 130.293 46.6223L131.878 47.8417C132.597 46.9076 133.311 46.568 134.03 46.568V44.568ZM130.305 46.6073C129.348 47.8037 128.615 49.3401 128.078 51.1751L129.997 51.7369C130.484 50.0732 131.117 48.7937 131.867 47.8567L130.305 46.6073ZM128.059 51.2488L123.707 71.7928L125.664 72.2072L130.016 51.6632L128.059 51.2488ZM124.686 71H115.47V73H124.686V71ZM116.448 72.207L121.12 50.127L119.163 49.713L114.491 71.793L116.448 72.207ZM121.112 50.1625C121.261 49.5673 121.334 48.9523 121.334 48.32H119.334C119.334 48.7971 119.279 49.2487 119.172 49.6775L121.112 50.1625ZM121.334 48.32C121.334 47.2989 121.165 46.3566 120.68 45.6447C120.148 44.8641 119.336 44.504 118.414 44.504V46.504C118.772 46.504 118.92 46.6132 119.028 46.7713C119.182 46.9981 119.334 47.4638 119.334 48.32H121.334ZM118.414 44.504C116.857 44.504 115.545 45.2458 114.5 46.5397L116.056 47.7963C116.803 46.8715 117.581 46.504 118.414 46.504V44.504ZM114.497 46.5433C113.536 47.7438 112.804 49.3054 112.268 51.1813L114.191 51.7307C114.679 50.0226 115.312 48.7255 116.059 47.7927L114.497 46.5433ZM112.251 51.2488L107.899 71.7928L109.856 72.2072L114.208 51.6632L112.251 51.2488ZM108.878 71H99.6618V73H108.878V71ZM100.64 72.2074L107.424 40.2074L105.467 39.7926L98.6835 71.7926L100.64 72.2074ZM106.446 41H115.662V39H106.446V41ZM114.683 39.793L113.979 43.121L115.936 43.535L116.64 40.207L114.683 39.793ZM115.703 43.9948C117.706 41.7564 120.045 40.68 122.766 40.68V38.68C119.428 38.68 116.562 40.0356 114.213 42.6612L115.703 43.9948ZM122.766 40.68C124.483 40.68 125.72 41.0978 126.589 41.8236C127.457 42.5486 128.081 43.6828 128.373 45.3558L130.343 45.0122C129.995 43.0158 129.2 41.3981 127.871 40.2884C126.543 39.1795 124.803 38.68 122.766 38.68V40.68ZM130.197 45.7272C132.403 42.3179 135.082 40.744 138.254 40.744V38.744C134.257 38.744 131.005 40.7967 128.518 44.6407L130.197 45.7272ZM138.254 40.744C140.241 40.744 141.703 41.2846 142.755 42.2671L144.12 40.8049C142.613 39.398 140.619 38.744 138.254 38.744V40.744ZM142.755 42.2671C143.764 43.2083 144.358 44.7102 144.358 46.976H146.358C146.358 44.3778 145.672 42.2531 144.12 40.8049L142.755 42.2671ZM144.358 46.976C144.358 48.1351 144.218 49.4564 143.928 50.9451L145.891 51.3269C146.199 49.7436 146.358 48.2916 146.358 46.976H144.358ZM143.929 50.9399C143.635 52.4102 143.213 54.2268 142.661 56.393L144.599 56.887C145.156 54.7012 145.587 52.8484 145.89 51.3321L143.929 50.9399ZM142.661 56.3901C142.318 57.72 141.996 59.0289 141.696 60.3168L143.644 60.7712C143.94 59.4991 144.259 58.2053 144.598 56.8899L142.661 56.3901ZM141.69 60.3414C141.429 61.6041 141.286 62.6625 141.286 63.488H143.286C143.286 62.8628 143.398 61.9585 143.649 60.7466L141.69 60.3414ZM141.286 63.488C141.286 64.4796 141.508 65.3968 142.088 66.1052L143.636 64.8388C143.447 64.6086 143.286 64.203 143.286 63.488H141.286ZM142.088 66.1052C142.746 66.9101 143.773 67.176 144.846 67.176V65.176C144.041 65.176 143.745 64.9726 143.636 64.8388L142.088 66.1052ZM144.846 67.176C146.39 67.176 147.702 66.6208 148.677 65.4828L147.158 64.1812C146.598 64.8352 145.862 65.176 144.846 65.176V67.176ZM148.692 65.4652C149.554 64.4113 150.367 62.8733 151.15 60.9154L149.293 60.1726C148.54 62.0547 147.817 63.3754 147.144 64.1988L148.692 65.4652ZM150.222 61.544H152.91V59.544H150.222V61.544ZM151.962 60.2252C150.399 64.8706 148.643 67.7913 146.793 69.2258L148.019 70.8062C150.35 68.998 152.263 65.6041 153.858 60.8628L151.962 60.2252ZM146.795 69.224C144.892 70.691 142.968 71.384 141.006 71.384V73.384C143.481 73.384 145.823 72.4983 148.016 70.808L146.795 69.224ZM152.075 69.824L151.413 70.5733L152.075 69.824ZM151.115 52.48L152.062 52.7996L151.115 52.48ZM156.875 43.328L157.57 44.0466L157.576 44.0408L156.875 43.328ZM175.051 49.728H174.051V50.4488L174.735 50.6767L175.051 49.728ZM180.619 48.704L180.986 49.634L180.996 49.6303L181.005 49.6264L180.619 48.704ZM185.611 45.952L186.559 45.6358L186.131 44.3513L185.03 45.1383L185.611 45.952ZM186.187 47.68L186.917 48.3632L187.324 47.9285L187.135 47.3638L186.187 47.68ZM181.323 51.072L181.738 51.9817L181.747 51.9777L181.323 51.072ZM174.859 52.992L174.697 52.0051L173.931 52.1306L173.863 52.9044L174.859 52.992ZM172.235 63.168L171.335 62.7314L172.235 63.168ZM166.795 69.888L166.215 69.0732L166.795 69.888ZM165.195 64.768L165.942 65.4324L165.948 65.4256L165.954 65.4188L165.195 64.768ZM167.883 59.968L168.817 60.3257L168.819 60.3191L167.883 59.968ZM169.547 53.184L170.537 53.3206L170.663 52.4077L169.764 52.2078L169.547 53.184ZM169.803 47.04L170.189 47.9622L170.844 47.6878L170.801 46.9795L169.803 47.04ZM169.163 44.16L168.311 44.6841L168.321 44.6996L168.331 44.7147L169.163 44.16ZM163.275 46.4L164.115 46.9425L163.275 46.4ZM160.075 53.76L161.037 54.0328L160.075 53.76ZM159.563 65.472L158.723 66.0153L158.731 66.027L158.739 66.0385L159.563 65.472ZM159.563 71.256C156.577 71.256 154.341 70.4922 152.737 69.0747L151.413 70.5733C153.478 72.3985 156.234 73.256 159.563 73.256V71.256ZM152.737 69.0747C151.196 67.7132 150.323 65.4823 150.323 62.144H148.323C148.323 65.803 149.284 68.6921 151.413 70.5733L152.737 69.0747ZM150.323 62.144C150.323 59.3775 150.893 56.2661 152.062 52.7996L150.167 52.1604C148.947 55.7765 148.323 59.1078 148.323 62.144H150.323ZM152.062 52.7996C153.207 49.4071 155.041 46.4939 157.57 44.0466L156.179 42.6094C153.418 45.2821 151.412 48.4702 150.167 52.1604L152.062 52.7996ZM157.576 44.0408C160.018 41.6379 163.087 40.424 166.859 40.424V38.424C162.609 38.424 159.022 39.8127 156.173 42.6152L157.576 44.0408ZM166.859 40.424C169.369 40.424 171.093 41.1973 172.222 42.6087C173.385 44.0627 174.051 46.3575 174.051 49.664H176.051C176.051 46.1438 175.351 43.3186 173.784 41.3593C172.182 39.3574 169.81 38.424 166.859 38.424V40.424ZM174.051 49.664V49.728H176.051V49.664H174.051ZM174.735 50.6767C175.035 50.7768 175.421 50.792 175.755 50.792V48.792C175.602 48.792 175.49 48.7871 175.413 48.7801C175.375 48.7766 175.352 48.7732 175.341 48.7712C175.327 48.7689 175.339 48.77 175.367 48.7793L174.735 50.6767ZM175.755 50.792C177.328 50.792 179.078 50.3884 180.986 49.634L180.251 47.774C178.49 48.4703 176.997 48.792 175.755 48.792V50.792ZM181.005 49.6264C182.903 48.832 184.633 47.8793 186.192 46.7657L185.03 45.1383C183.602 46.1581 182.004 47.04 180.233 47.7816L181.005 49.6264ZM184.662 46.2682L185.238 47.9962L187.135 47.3638L186.559 45.6358L184.662 46.2682ZM185.456 46.9968C184.323 48.2083 182.814 49.27 180.899 50.1663L181.747 51.9777C183.842 50.9967 185.576 49.797 186.917 48.3632L185.456 46.9968ZM180.907 50.1623C179.033 51.0179 176.965 51.634 174.697 52.0051L175.02 53.9789C177.446 53.582 179.687 52.9181 181.738 51.9817L180.907 50.1623ZM173.863 52.9044C173.53 56.6904 172.68 59.9598 171.335 62.7314L173.134 63.6046C174.605 60.5736 175.505 57.0589 175.855 53.0796L173.863 52.9044ZM171.335 62.7314C169.987 65.5097 168.274 67.6083 166.215 69.0732L167.375 70.7028C169.753 69.0104 171.667 66.629 173.134 63.6046L171.335 62.7314ZM166.215 69.0732C164.157 70.5373 161.948 71.256 159.563 71.256V73.256C162.383 73.256 164.995 72.396 167.375 70.7028L166.215 69.0732ZM162.123 67.496C163.551 67.496 164.825 66.6894 165.942 65.4324L164.447 64.1036C163.517 65.1506 162.743 65.496 162.123 65.496V67.496ZM165.954 65.4188C167.074 64.1118 168.022 62.4016 168.817 60.3256L166.949 59.6104C166.208 61.545 165.363 63.0348 164.436 64.1172L165.954 65.4188ZM168.819 60.3191C169.616 58.1929 170.187 55.8584 170.537 53.3206L168.556 53.0474C168.224 55.4589 167.685 57.6471 166.946 59.6169L168.819 60.3191ZM169.764 52.2078C169.415 52.1302 169.221 51.9806 169.092 51.7792C168.944 51.549 168.819 51.1527 168.819 50.496H166.819C166.819 51.3753 166.982 52.195 167.41 52.8608C167.856 53.5554 168.527 53.9818 169.33 54.1602L169.764 52.2078ZM168.819 50.496C168.819 49.7423 168.962 49.2017 169.182 48.8179C169.394 48.4477 169.713 48.1618 170.189 47.9622L169.416 46.1178C168.569 46.4728 167.896 47.0403 167.447 47.8221C167.007 48.5903 166.819 49.5004 166.819 50.496H168.819ZM170.801 46.9795C170.756 46.2434 170.677 45.5954 170.555 45.0471C170.436 44.51 170.263 44.0069 169.995 43.6053L168.331 44.7147C168.404 44.8251 168.509 45.058 168.603 45.4809C168.694 45.8926 168.764 46.4286 168.805 47.1005L170.801 46.9795ZM170.014 43.6359C169.435 42.6947 168.449 42.328 167.371 42.328V44.328C167.999 44.328 168.208 44.516 168.311 44.6841L170.014 43.6359ZM167.371 42.328C165.433 42.328 163.807 43.7328 162.435 45.8575L164.115 46.9425C165.388 44.9712 166.492 44.328 167.371 44.328V42.328ZM162.435 45.8575C161.048 48.0047 159.945 50.5531 159.113 53.4872L161.037 54.0328C161.826 51.2495 162.856 48.8913 164.115 46.9425L162.435 45.8575ZM159.113 53.4872C158.285 56.4046 157.859 59.0171 157.859 61.312H159.859C159.859 59.2549 160.243 56.8327 161.037 54.0328L159.113 53.4872ZM157.859 61.312C157.859 62.3691 157.919 63.2877 158.049 64.0549C158.176 64.8084 158.383 65.4889 158.723 66.0153L160.402 64.9287C160.274 64.7298 160.128 64.3543 160.021 63.7211C159.916 63.1016 159.859 62.3029 159.859 61.312H157.859ZM158.739 66.0385C159.474 67.1084 160.728 67.496 162.123 67.496V65.496C161.043 65.496 160.59 65.2009 160.387 64.9055L158.739 66.0385ZM182.696 40V39H181.886L181.717 39.7926L182.696 40ZM191.912 40L192.89 40.2052L193.143 39H191.912V40ZM191.08 43.968L190.101 43.7628L189.483 46.7106L191.741 44.7178L191.08 43.968ZM194.984 41.024L194.488 40.1558L194.481 40.1597L194.474 40.1637L194.984 41.024ZM202.024 41.408L201.25 42.0412L201.258 42.0515L201.267 42.0616L202.024 41.408ZM202.024 48.064L201.267 47.4104L202.024 48.064ZM196.712 48.832L195.868 49.3689L195.897 49.4145L195.931 49.4567L196.712 48.832ZM196.008 46.848L196.988 46.6519L196.985 46.6375L196.982 46.6231L196.008 46.848ZM195.624 45.632L196.518 45.1848V45.1848L195.624 45.632ZM192.616 45.824L193.112 46.6922L193.121 46.687L193.13 46.6815L192.616 45.824ZM190.248 47.68L189.573 46.9415L189.336 47.1587L189.269 47.474L190.248 47.68ZM185.128 72V73H185.939L186.106 72.206L185.128 72ZM175.912 72L174.933 71.7926L174.678 73H175.912V72ZM182.696 41H191.912V39H182.696V41ZM190.933 39.7948L190.101 43.7628L192.058 44.1732L192.89 40.2052L190.933 39.7948ZM191.741 44.7178C193.164 43.4628 194.413 42.5243 195.494 41.8843L194.474 40.1637C193.25 40.889 191.897 41.9132 190.418 43.2182L191.741 44.7178ZM195.48 41.8922C196.525 41.2952 197.634 41 198.824 41V39C197.283 39 195.832 39.3875 194.488 40.1558L195.48 41.8922ZM198.824 41C199.932 41 200.697 41.3658 201.25 42.0412L202.798 40.7748C201.814 39.5729 200.446 39 198.824 39V41ZM201.267 42.0616C201.91 42.806 202.24 43.7 202.24 44.8H204.24C204.24 43.2546 203.759 41.8873 202.781 40.7544L201.267 42.0616ZM202.24 44.8C202.24 45.7967 201.921 46.6529 201.267 47.4104L202.781 48.7176C203.748 47.5978 204.24 46.278 204.24 44.8H202.24ZM201.267 47.4104C200.679 48.091 199.846 48.472 198.632 48.472V50.472C200.319 50.472 201.747 49.9144 202.781 48.7176L201.267 47.4104ZM198.632 48.472C197.786 48.472 197.543 48.2704 197.493 48.2073L195.931 49.4567C196.563 50.2469 197.6 50.472 198.632 50.472V48.472ZM197.555 48.2951C197.35 47.9718 197.147 47.4448 196.988 46.6519L195.027 47.0441C195.21 47.9579 195.477 48.7535 195.868 49.3689L197.555 48.2951ZM196.982 46.6231C196.85 46.0514 196.701 45.5509 196.518 45.1848L194.729 46.0792C194.802 46.2251 194.909 46.5352 195.033 47.0729L196.982 46.6231ZM196.518 45.1848C196.37 44.8878 196.14 44.6349 195.831 44.4661C195.531 44.3028 195.212 44.248 194.92 44.248V46.248C194.968 46.248 194.938 46.2572 194.873 46.2219C194.84 46.2042 194.808 46.18 194.781 46.1506C194.753 46.1217 194.737 46.0955 194.729 46.0792L196.518 45.1848ZM194.92 44.248C193.879 44.248 192.925 44.4721 192.101 44.9665L193.13 46.6815C193.586 46.4079 194.169 46.248 194.92 46.248V44.248ZM192.12 44.9558C191.424 45.3534 190.569 46.0327 189.573 46.9415L190.922 48.4185C191.889 47.5353 192.613 46.9773 193.112 46.6922L192.12 44.9558ZM189.269 47.474L184.149 71.794L186.106 72.206L191.226 47.886L189.269 47.474ZM185.128 71H175.912V73H185.128V71ZM176.89 72.2074L183.674 40.2074L181.717 39.7926L174.933 71.7926L176.89 72.2074ZM207.078 86.016L207.731 85.2582L207.729 85.2567L207.078 86.016ZM206.246 76.48L205.46 75.8622L206.246 76.48ZM209.894 73.664L209.478 72.7545L209.894 73.664ZM215.91 71.488L216.202 72.4445L216.757 72.2752L216.885 71.7096L215.91 71.488ZM216.55 68.672L217.525 68.8936L215.799 68.0117L216.55 68.672ZM203.75 70.464L203.031 71.159L203.037 71.1651L203.043 71.1711L203.75 70.464ZM202.406 60.544L201.428 60.3367L201.426 60.3479L202.406 60.544ZM206.758 40V39H205.948L205.78 39.7928L206.758 40ZM215.974 40L216.953 40.2072L217.208 39H215.974V40ZM211.366 61.76L212.336 62.0025L212.341 61.9849L212.345 61.9672L211.366 61.76ZM216.166 64.704L216.921 65.3602L216.928 65.3523L216.934 65.3442L216.166 64.704ZM218.214 60.544L219.174 60.8249L219.185 60.7884L219.193 60.7512L218.214 60.544ZM222.566 40V39H221.756L221.588 39.7928L222.566 40ZM231.846 40L232.825 40.2058L233.078 39H231.846V40ZM224.038 77.12L223.06 76.9142L223.059 76.916L224.038 77.12ZM219.494 85.632L218.907 84.8225L218.899 84.8282L219.494 85.632ZM213.094 81.088L212.347 80.4236L212.338 80.4336L212.329 80.4439L213.094 81.088ZM214.694 77.312L215.671 77.5264L215.673 77.5189L215.674 77.5113L214.694 77.312ZM215.462 73.536L216.442 73.7353L216.789 72.0292L215.141 72.5891L215.462 73.536ZM210.214 76.224L209.577 75.4536L210.214 76.224ZM209.126 81.6L209.802 80.8628L209.785 80.8469L209.766 80.8318L209.126 81.6ZM212.39 87C210.627 87 209.087 86.4265 207.731 85.2582L206.426 86.7738C208.141 88.2509 210.143 89 212.39 89V87ZM207.729 85.2567C206.462 84.171 205.838 82.808 205.838 81.088H203.838C203.838 83.3787 204.708 85.301 206.427 86.7753L207.729 85.2567ZM205.838 81.088C205.838 79.3806 206.262 78.078 207.033 77.0978L205.46 75.8622C204.353 77.2713 203.838 79.0407 203.838 81.088H205.838ZM207.033 77.0978C207.865 76.0385 208.95 75.1953 210.31 74.5735L209.478 72.7545C207.852 73.498 206.505 74.5322 205.46 75.8622L207.033 77.0978ZM210.31 74.5735C211.747 73.9168 213.705 73.2063 216.202 72.4445L215.618 70.5315C213.081 71.3057 211.029 72.0459 209.478 72.7545L210.31 74.5735ZM216.885 71.7096L217.525 68.8936L215.575 68.4504L214.935 71.2664L216.885 71.7096ZM215.799 68.0117C213.794 70.2918 211.457 71.384 208.742 71.384V73.384C212.086 73.384 214.954 72.0016 217.301 69.3323L215.799 68.0117ZM208.742 71.384C206.921 71.384 205.525 70.8241 204.457 69.7569L203.043 71.1711C204.536 72.6639 206.467 73.384 208.742 73.384V71.384ZM204.469 69.769C203.478 68.7436 202.894 67.1182 202.894 64.704H200.894C200.894 67.4098 201.548 69.6244 203.031 71.159L204.469 69.769ZM202.894 64.704C202.894 63.7312 203.051 62.4172 203.387 60.7401L201.426 60.3479C201.078 62.0842 200.894 63.5435 200.894 64.704H202.894ZM203.385 60.7512L207.737 40.2072L205.78 39.7928L201.428 60.3368L203.385 60.7512ZM206.758 41H215.974V39H206.758V41ZM214.996 39.7928L210.388 61.5528L212.345 61.9672L216.953 40.2072L214.996 39.7928ZM210.396 61.5175C210.247 62.1127 210.174 62.7277 210.174 63.36H212.174C212.174 62.8829 212.229 62.4313 212.336 62.0025L210.396 61.5175ZM210.174 63.36C210.174 64.3811 210.343 65.3234 210.828 66.0353C211.36 66.8159 212.172 67.176 213.094 67.176V65.176C212.736 65.176 212.588 65.0668 212.48 64.9087C212.326 64.6819 212.174 64.2162 212.174 63.36H210.174ZM213.094 67.176C214.606 67.176 215.897 66.5381 216.921 65.3602L215.412 64.0478C214.729 64.8326 213.972 65.176 213.094 65.176V67.176ZM216.934 65.3442C217.902 64.1837 218.637 62.6604 219.174 60.8249L217.255 60.2631C216.768 61.9262 216.138 63.1763 215.398 64.0638L216.934 65.3442ZM219.193 60.7512L223.545 40.2072L221.588 39.7928L217.236 60.3368L219.193 60.7512ZM222.566 41H231.846V39H222.566V41ZM230.868 39.7942L223.06 76.9142L225.017 77.3258L232.825 40.2058L230.868 39.7942ZM223.059 76.916C222.23 80.8986 220.795 83.4527 218.907 84.8226L220.081 86.4414C222.545 84.654 224.14 81.5334 225.017 77.324L223.059 76.916ZM218.899 84.8282C216.935 86.2821 214.774 87 212.39 87V89C215.212 89 217.787 88.1392 220.089 86.4358L218.899 84.8282ZM210.918 83.304C212.081 83.304 213.062 82.6785 213.859 81.7321L212.329 80.4439C211.761 81.1189 211.291 81.304 210.918 81.304V83.304ZM213.842 81.7524C214.694 80.7937 215.274 79.3351 215.671 77.5264L213.717 77.0976C213.347 78.7875 212.86 79.8463 212.347 80.4236L213.842 81.7524ZM215.674 77.5113L216.442 73.7353L214.482 73.3367L213.714 77.1127L215.674 77.5113ZM215.141 72.5891C212.815 73.379 210.942 74.324 209.577 75.4536L210.852 76.9944C211.962 76.076 213.587 75.229 215.784 74.4829L215.141 72.5891ZM209.577 75.4536C208.107 76.6697 207.358 78.276 207.358 80.192H209.358C209.358 78.8654 209.847 77.8263 210.852 76.9944L209.577 75.4536ZM207.358 80.192C207.358 81.0851 207.82 81.8131 208.486 82.3682L209.766 80.8318C209.409 80.5336 209.358 80.3229 209.358 80.192H207.358ZM208.451 82.3372C209.143 82.9723 209.981 83.304 210.918 83.304V81.304C210.491 81.304 210.133 81.1664 209.802 80.8628L208.451 82.3372Z" fill="#FF1506"/>
<path d="M17.68 125.152C14.992 125.152 12.624 124.683 10.576 123.744C8.528 122.805 6.94933 121.504 5.84 119.84C4.73067 118.133 4.176 116.171 4.176 113.952C4.176 112.075 4.56 110.368 5.328 108.832C6.13867 107.296 7.20533 106.08 8.528 105.184C9.89333 104.288 11.3867 103.84 13.008 103.84C14.5013 103.84 15.76 104.224 16.784 104.992C17.808 105.717 18.448 106.741 18.704 108.064C16.4853 108.064 14.7147 108.661 13.392 109.856C12.0693 111.008 11.408 112.587 11.408 114.592C11.408 116.427 11.9627 117.899 13.072 119.008C14.1813 120.117 15.6533 120.672 17.488 120.672C19.7493 120.672 21.6053 119.925 23.056 118.432C24.5493 116.896 25.296 114.976 25.296 112.672C25.296 110.667 24.7413 108.768 23.632 106.976C22.5227 105.184 20.8587 103.008 18.64 100.448C16.336 97.8027 14.5867 95.5413 13.392 93.664C12.24 91.744 11.664 89.6533 11.664 87.392C11.664 85.1733 12.2827 83.1893 13.52 81.44C14.7573 79.648 16.464 78.24 18.64 77.216C20.816 76.192 23.2693 75.68 26 75.68C29.456 75.68 32.208 76.4907 34.256 78.112C36.3467 79.7333 37.392 81.9093 37.392 84.64C37.392 86.432 36.944 87.8827 36.048 88.992C35.152 90.1013 33.9787 90.656 32.528 90.656C30.9067 90.656 29.6053 89.9947 28.624 88.672C29.4347 88.0747 30.0747 87.2853 30.544 86.304C31.0133 85.3227 31.248 84.2987 31.248 83.232C31.248 81.8667 30.8427 80.7787 30.032 79.968C29.2213 79.1573 28.112 78.752 26.704 78.752C24.9973 78.752 23.5893 79.3707 22.48 80.608C21.4133 81.8027 20.88 83.3387 20.88 85.216C20.88 86.9227 21.3707 88.5227 22.352 90.016C23.3333 91.4667 24.8693 93.344 26.96 95.648C28.6667 97.4827 30.032 99.0613 31.056 100.384C32.1227 101.707 33.0187 103.243 33.744 104.992C34.512 106.699 34.896 108.555 34.896 110.56C34.896 113.291 34.128 115.765 32.592 117.984C31.0987 120.203 29.0293 121.952 26.384 123.232C23.7813 124.512 20.88 125.152 17.68 125.152ZM49.188 88.544C47.78 88.544 46.5853 88.0533 45.604 87.072C44.6227 86.0907 44.132 84.896 44.132 83.488C44.132 82.08 44.6227 80.8853 45.604 79.904C46.5853 78.88 47.78 78.368 49.188 78.368C50.596 78.368 51.7907 78.88 52.772 79.904C53.796 80.8853 54.308 82.08 54.308 83.488C54.308 84.896 53.796 86.0907 52.772 87.072C51.7907 88.0533 50.596 88.544 49.188 88.544ZM44.836 124.384C42.788 124.384 41.124 123.744 39.844 122.464C38.6067 121.184 37.988 119.264 37.988 116.704C37.988 115.637 38.1587 114.251 38.5 112.544L42.852 92H52.068L47.46 113.76C47.2893 114.4 47.204 115.083 47.204 115.808C47.204 116.661 47.396 117.28 47.78 117.664C48.2067 118.005 48.8893 118.176 49.828 118.176C51.0653 118.176 52.2173 117.664 53.284 116.64C54.3507 115.573 55.1187 114.208 55.588 112.544H58.276C56.6973 117.152 54.6707 120.288 52.196 121.952C49.7213 123.573 47.268 124.384 44.836 124.384ZM94.4745 124.384C91.8718 124.384 89.9518 123.701 88.7145 122.336C87.5198 120.928 86.9225 119.2 86.9225 117.152C86.9225 116.256 87.0292 115.253 87.2425 114.144C87.4558 112.992 87.6692 111.883 87.8825 110.816C88.1385 109.749 88.3092 109.067 88.3945 108.768C88.7358 107.275 89.0558 105.803 89.3545 104.352C89.6532 102.901 89.8025 101.728 89.8025 100.832C89.8025 98.656 89.0345 97.568 87.4985 97.568C86.3892 97.568 85.4078 98.1227 84.5545 99.232C83.7012 100.299 83.0185 101.707 82.5065 103.456L78.1545 124H68.9385L73.6105 101.92C73.7385 101.408 73.8025 100.875 73.8025 100.32C73.8025 98.4427 73.1625 97.504 71.8825 97.504C70.6878 97.504 69.6425 98.0587 68.7465 99.168C67.8932 100.235 67.2105 101.664 66.6985 103.456L62.3465 124H53.1305L59.9145 92H69.1305L68.4265 95.328C70.6025 92.896 73.2052 91.68 76.2345 91.68C79.9892 91.68 82.1865 93.5147 82.8265 97.184C85.1732 93.5573 88.1385 91.744 91.7225 91.744C93.8985 91.744 95.6265 92.3413 96.9065 93.536C98.1865 94.7307 98.8265 96.544 98.8265 98.976C98.8265 100.213 98.6772 101.6 98.3785 103.136C98.0798 104.629 97.6532 106.464 97.0985 108.64C96.7572 109.963 96.4372 111.264 96.1385 112.544C95.8825 113.781 95.7545 114.763 95.7545 115.488C95.7545 116.341 95.9465 117.003 96.3305 117.472C96.7145 117.941 97.3758 118.176 98.3145 118.176C99.5945 118.176 100.619 117.728 101.387 116.832C102.155 115.893 102.923 114.464 103.691 112.544H106.379C104.8 117.237 102.965 120.395 100.875 122.016C98.8265 123.595 96.6932 124.384 94.4745 124.384ZM110.024 124.384C107.976 124.384 106.312 123.744 105.032 122.464C103.794 121.184 103.175 119.264 103.175 116.704C103.175 115.637 103.346 114.251 103.688 112.544L108.04 92H117.256L112.648 113.76C112.52 114.4 112.456 114.997 112.456 115.552C112.456 117.301 113.096 118.176 114.376 118.176C115.57 118.176 116.594 117.685 117.448 116.704C118.301 115.68 118.984 114.293 119.496 112.544L123.848 92H133.064L128.456 113.76C128.285 114.4 128.2 115.083 128.2 115.808C128.2 116.661 128.392 117.28 128.776 117.664C129.202 118.005 129.885 118.176 130.824 118.176C132.018 118.176 133.042 117.664 133.896 116.64C134.792 115.616 135.496 114.251 136.007 112.544H138.696C137.117 117.152 135.154 120.288 132.808 121.952C130.504 123.573 128.178 124.384 125.832 124.384C123.997 124.384 122.525 123.872 121.416 122.848C120.349 121.824 119.709 120.309 119.496 118.304C118.045 120.651 116.509 122.251 114.888 123.104C113.309 123.957 111.688 124.384 110.024 124.384ZM142.336 124.384C140.288 124.384 138.624 123.744 137.344 122.464C136.107 121.184 135.488 119.264 135.488 116.704C135.488 115.637 135.659 114.251 136 112.544L142.848 80.48L152.32 79.2L144.96 113.76C144.789 114.4 144.704 115.083 144.704 115.808C144.704 116.661 144.896 117.28 145.28 117.664C145.707 118.005 146.389 118.176 147.328 118.176C148.565 118.176 149.717 117.664 150.784 116.64C151.851 115.573 152.619 114.208 153.088 112.544H155.776C154.197 117.152 152.171 120.288 149.696 121.952C147.221 123.573 144.768 124.384 142.336 124.384ZM160.743 124.384C158.311 124.384 156.284 123.552 154.663 121.888C153.041 120.224 152.23 117.621 152.23 114.08C152.23 110.923 152.849 107.616 154.087 104.16C155.367 100.661 157.244 97.7173 159.719 95.328C162.236 92.896 165.223 91.68 168.679 91.68C170.428 91.68 171.729 91.9787 172.583 92.576C173.436 93.1733 173.863 93.9627 173.863 94.944V95.392L174.567 92H183.783L179.175 113.76C179.004 114.4 178.919 115.083 178.919 115.808C178.919 117.643 179.793 118.56 181.543 118.56C182.737 118.56 183.761 118.005 184.615 116.896C185.511 115.787 186.215 114.336 186.727 112.544H189.415C187.836 117.152 185.873 120.288 183.527 121.952C181.223 123.573 178.897 124.384 176.551 124.384C174.759 124.384 173.308 123.893 172.199 122.912C171.132 121.888 170.492 120.416 170.279 118.496C169.041 120.245 167.655 121.675 166.119 122.784C164.625 123.851 162.833 124.384 160.743 124.384ZM164.903 118.176C165.969 118.176 167.015 117.685 168.039 116.704C169.105 115.68 169.831 114.293 170.215 112.544L173.287 98.08C173.287 97.5253 173.073 96.992 172.647 96.48C172.22 95.9253 171.559 95.648 170.663 95.648C168.956 95.648 167.42 96.6507 166.055 98.656C164.689 100.619 163.623 103.008 162.855 105.824C162.087 108.597 161.703 111.051 161.703 113.184C161.703 115.317 162.001 116.683 162.599 117.28C163.239 117.877 164.007 118.176 164.903 118.176ZM193.086 124.384C191.038 124.384 189.374 123.744 188.094 122.464C186.857 121.184 186.238 119.264 186.238 116.704C186.238 115.637 186.409 114.251 186.75 112.544L190.59 94.56H188.478L188.99 92H191.102L193.022 83.168L202.494 81.888L200.318 92H204.158L203.646 94.56H199.806L195.71 113.76C195.539 114.4 195.454 115.083 195.454 115.808C195.454 116.661 195.646 117.28 196.03 117.664C196.457 118.005 197.139 118.176 198.078 118.176C199.315 118.176 200.467 117.664 201.534 116.64C202.601 115.573 203.369 114.208 203.838 112.544H206.526C204.947 117.152 202.921 120.288 200.446 121.952C197.971 123.573 195.518 124.384 193.086 124.384ZM213.157 124.256C209.999 124.256 207.503 123.445 205.669 121.824C203.834 120.203 202.916 117.643 202.916 114.144C202.916 111.243 203.514 108.021 204.709 104.48C205.903 100.939 207.823 97.888 210.469 95.328C213.114 92.7253 216.442 91.424 220.453 91.424C225.914 91.424 228.645 94.8373 228.645 101.664V101.728C228.773 101.771 229.007 101.792 229.349 101.792C230.757 101.792 232.378 101.429 234.213 100.704C236.047 99.936 237.711 99.0187 239.205 97.952L239.781 99.68C238.543 101.003 236.922 102.133 234.917 103.072C232.954 103.968 230.799 104.608 228.453 104.992C228.111 108.875 227.237 112.267 225.829 115.168C224.421 118.069 222.607 120.309 220.389 121.888C218.17 123.467 215.759 124.256 213.157 124.256ZM215.717 118.496C216.741 118.496 217.765 117.92 218.789 116.768C219.813 115.573 220.709 113.973 221.477 111.968C222.245 109.92 222.799 107.659 223.141 105.184C221.989 104.928 221.413 104.032 221.413 102.496C221.413 100.747 222.074 99.5947 223.397 99.04C223.311 97.632 223.098 96.672 222.757 96.16C222.415 95.6053 221.818 95.328 220.965 95.328C219.557 95.328 218.191 96.352 216.869 98.4C215.546 100.448 214.479 102.901 213.669 105.76C212.858 108.619 212.453 111.136 212.453 113.312C212.453 115.36 212.687 116.747 213.157 117.472C213.626 118.155 214.479 118.496 215.717 118.496ZM236.29 92H245.506L244.674 95.968C246.124 94.688 247.426 93.7067 248.578 93.024C249.772 92.3413 251.052 92 252.418 92C253.783 92 254.85 92.4693 255.618 93.408C256.428 94.3467 256.834 95.4773 256.834 96.8C256.834 98.0373 256.428 99.1253 255.618 100.064C254.807 101.003 253.676 101.472 252.226 101.472C251.287 101.472 250.647 101.259 250.306 100.832C250.007 100.363 249.772 99.7013 249.602 98.848C249.474 98.2933 249.346 97.888 249.218 97.632C249.09 97.376 248.855 97.248 248.514 97.248C247.618 97.248 246.85 97.44 246.21 97.824C245.612 98.1653 244.823 98.784 243.842 99.68L238.722 124H229.505L236.29 92Z" fill="#02DAFF"/>
<path d="M10.576 123.744L10.1593 124.653L10.576 123.744ZM5.84 119.84L5.0015 120.385L5.00795 120.395L5.84 119.84ZM5.328 108.832L4.44362 108.365L4.43849 108.375L4.43357 108.385L5.328 108.832ZM8.528 105.184L7.97934 104.348L7.97322 104.352L7.96715 104.356L8.528 105.184ZM16.784 104.992L16.184 105.792L16.1949 105.8L16.206 105.808L16.784 104.992ZM18.704 108.064V109.064H19.9161L19.6858 107.874L18.704 108.064ZM13.392 109.856L14.0488 110.61L14.0556 110.604L14.0623 110.598L13.392 109.856ZM23.056 118.432L22.339 117.735L22.3387 117.735L23.056 118.432ZM23.632 106.976L24.4823 106.45L23.632 106.976ZM18.64 100.448L19.3957 99.7931L19.3941 99.7912L18.64 100.448ZM13.392 93.664L12.5345 94.1785L12.5413 94.1898L12.5483 94.2009L13.392 93.664ZM13.52 81.44L14.3365 82.0175L14.3429 82.0082L13.52 81.44ZM18.64 77.216L19.0658 78.1208L19.0658 78.1208L18.64 77.216ZM34.256 78.112L33.6353 78.8961L33.6432 78.9022L34.256 78.112ZM36.048 88.992L35.2701 88.3637L35.2701 88.3637L36.048 88.992ZM28.624 88.672L28.0308 87.8669L27.2231 88.4621L27.8209 89.2678L28.624 88.672ZM30.544 86.304L29.6419 85.8725L30.544 86.304ZM22.48 80.608L21.7354 79.9405L21.7341 79.942L22.48 80.608ZM22.352 90.016L21.5162 90.5652L21.5237 90.5763L22.352 90.016ZM26.96 95.648L26.2194 96.32L26.2278 96.3291L26.96 95.648ZM31.056 100.384L30.2653 100.996L30.2714 101.004L30.2776 101.012L31.056 100.384ZM33.744 104.992L32.8203 105.375L32.826 105.389L32.8321 105.402L33.744 104.992ZM32.592 117.984L31.7697 117.415L31.7624 117.426L32.592 117.984ZM26.384 123.232L25.9484 122.332L25.9427 122.335L26.384 123.232ZM17.68 124.152C15.1084 124.152 12.8871 123.703 10.9927 122.835L10.1593 124.653C12.3609 125.662 14.8756 126.152 17.68 126.152V124.152ZM10.9927 122.835C9.09141 121.964 7.66588 120.776 6.67205 119.285L5.00795 120.395C6.23279 122.232 7.96459 123.647 10.1593 124.653L10.9927 122.835ZM6.67844 119.295C5.68401 117.765 5.176 115.995 5.176 113.952H3.176C3.176 116.346 3.77732 118.502 5.00156 120.385L6.67844 119.295ZM5.176 113.952C5.176 112.215 5.53015 110.664 6.22243 109.279L4.43357 108.385C3.58985 110.072 3.176 111.934 3.176 113.952H5.176ZM6.21238 109.299C6.9533 107.895 7.91365 106.808 9.08885 106.012L7.96715 104.356C6.49702 105.352 5.32403 106.697 4.44362 108.365L6.21238 109.299ZM9.07666 106.02C10.2803 105.23 11.5831 104.84 13.008 104.84V102.84C11.1902 102.84 9.50641 103.346 7.97934 104.348L9.07666 106.02ZM13.008 104.84C14.3224 104.84 15.3608 105.175 16.184 105.792L17.384 104.192C16.1592 103.273 14.6803 102.84 13.008 102.84V104.84ZM16.206 105.808C17.0034 106.373 17.5112 107.164 17.7222 108.254L19.6858 107.874C19.3848 106.319 18.6126 105.062 17.362 104.176L16.206 105.808ZM18.704 107.064C16.3008 107.064 14.2702 107.715 12.7217 109.114L14.0623 110.598C15.1591 109.607 16.6698 109.064 18.704 109.064V107.064ZM12.7352 109.102C11.162 110.472 10.408 112.344 10.408 114.592H12.408C12.408 112.83 12.9766 111.544 14.0488 110.61L12.7352 109.102ZM10.408 114.592C10.408 116.643 11.0363 118.387 12.3649 119.715L13.7791 118.301C12.889 117.411 12.408 116.21 12.408 114.592H10.408ZM12.3649 119.715C13.6935 121.044 15.4366 121.672 17.488 121.672V119.672C15.8701 119.672 14.6692 119.191 13.7791 118.301L12.3649 119.715ZM17.488 121.672C19.9938 121.672 22.1171 120.834 23.7733 119.129L22.3387 117.735C21.0936 119.017 19.5049 119.672 17.488 119.672V121.672ZM23.773 119.129C25.4623 117.391 26.296 115.215 26.296 112.672H24.296C24.296 114.737 23.6363 116.401 22.339 117.735L23.773 119.129ZM26.296 112.672C26.296 110.471 25.6843 108.391 24.4823 106.45L22.7817 107.502C23.7984 109.145 24.296 110.862 24.296 112.672H26.296ZM24.4823 106.45C23.3333 104.594 21.631 102.372 19.3957 99.7931L17.8843 101.103C20.0863 103.644 21.7121 105.774 22.7817 107.502L24.4823 106.45ZM19.3941 99.7912C17.1065 97.1647 15.3928 94.9455 14.2357 93.1271L12.5483 94.2009C13.7805 96.1372 15.5655 98.4406 17.8859 101.105L19.3941 99.7912ZM14.2495 93.1495C13.1917 91.3865 12.664 89.474 12.664 87.392H10.664C10.664 89.8327 11.2883 92.1015 12.5345 94.1785L14.2495 93.1495ZM12.664 87.392C12.664 85.3724 13.223 83.5917 14.3364 82.0175L12.7036 80.8625C11.3424 82.787 10.664 84.9743 10.664 87.392H12.664ZM14.3429 82.0082C15.4697 80.3763 17.0324 79.0777 19.0658 78.1208L18.2142 76.3112C15.8956 77.4023 14.045 78.9197 12.6971 80.8718L14.3429 82.0082ZM19.0658 78.1208C21.0916 77.1675 23.3966 76.68 26 76.68V74.68C23.1421 74.68 20.5404 75.2165 18.2142 76.3112L19.0658 78.1208ZM26 76.68C29.3036 76.68 31.8137 77.454 33.6353 78.896L34.8767 77.328C32.6023 75.5274 29.6084 74.68 26 74.68V76.68ZM33.6432 78.9022C35.4806 80.3271 36.392 82.2068 36.392 84.64H38.392C38.392 81.6118 37.2128 79.1395 34.8688 77.3218L33.6432 78.9022ZM36.392 84.64C36.392 86.2634 35.9887 87.4739 35.2701 88.3637L36.8259 89.6203C37.8993 88.2914 38.392 86.6006 38.392 84.64H36.392ZM35.2701 88.3637C34.5677 89.2333 33.6826 89.656 32.528 89.656V91.656C34.2747 91.656 35.7363 90.9694 36.8259 89.6203L35.2701 88.3637ZM32.528 89.656C31.2291 89.656 30.2233 89.1493 29.4271 88.0762L27.8209 89.2678C28.9873 90.84 30.5842 91.656 32.528 91.656V89.656ZM29.2172 89.4771C30.1704 88.7747 30.9119 87.8526 31.4461 86.7355L29.6419 85.8725C29.2375 86.7181 28.6989 87.3746 28.0308 87.8669L29.2172 89.4771ZM31.4461 86.7355C31.9786 85.6222 32.248 84.451 32.248 83.232H30.248C30.248 84.1463 30.0481 85.0232 29.6419 85.8725L31.4461 86.7355ZM32.248 83.232C32.248 81.6558 31.7725 80.2943 30.7391 79.2609L29.3249 80.6751C29.9128 81.263 30.248 82.0776 30.248 83.232H32.248ZM30.7391 79.2609C29.6999 78.2217 28.3129 77.752 26.704 77.752V79.752C27.9111 79.752 28.7428 80.093 29.3249 80.6751L30.7391 79.2609ZM26.704 77.752C24.7219 77.752 23.0402 78.4851 21.7354 79.9405L23.2246 81.2755C24.1385 80.2562 25.2727 79.752 26.704 79.752V77.752ZM21.7341 79.942C20.4762 81.3508 19.88 83.1378 19.88 85.216H21.88C21.88 83.5395 22.3505 82.2545 23.2259 81.274L21.7341 79.942ZM19.88 85.216C19.88 87.1273 20.4331 88.9168 21.5163 90.5652L23.1877 89.4668C22.3082 88.1285 21.88 86.718 21.88 85.216H19.88ZM21.5237 90.5763C22.5444 92.0852 24.1173 94.0033 26.2194 96.32L27.7006 94.976C25.6214 92.6847 24.1222 90.8481 23.1803 89.4557L21.5237 90.5763ZM26.2278 96.3291C27.923 98.1514 29.2664 99.7059 30.2653 100.996L31.8467 99.7718C30.7976 98.4167 29.4104 96.8139 27.6922 94.9669L26.2278 96.3291ZM30.2776 101.012C31.278 102.252 32.1273 103.704 32.8203 105.375L34.6677 104.609C33.91 102.782 32.9674 101.161 31.8344 99.7562L30.2776 101.012ZM32.8321 105.402C33.5379 106.971 33.896 108.686 33.896 110.56H35.896C35.896 108.423 35.4861 106.426 34.6559 104.582L32.8321 105.402ZM33.896 110.56C33.896 113.09 33.1886 115.365 31.7698 117.415L33.4142 118.553C35.0674 116.165 35.896 113.491 35.896 110.56H33.896ZM31.7624 117.426C30.3775 119.483 28.4507 121.121 25.9484 122.332L26.8196 124.132C29.608 122.783 31.8199 120.922 33.4216 118.542L31.7624 117.426ZM25.9427 122.335C23.491 123.54 20.743 124.152 17.68 124.152V126.152C21.017 126.152 24.0717 125.484 26.8253 124.129L25.9427 122.335ZM45.604 87.072L46.3111 86.3649L45.604 87.072ZM45.604 79.904L46.3111 80.6111L46.3186 80.6036L46.326 80.5959L45.604 79.904ZM52.772 79.904L52.05 80.5959L52.0647 80.6113L52.0801 80.626L52.772 79.904ZM52.772 87.072L52.0801 86.35L52.0724 86.3574L52.0649 86.3649L52.772 87.072ZM39.844 122.464L39.125 123.159L39.1309 123.165L39.1369 123.171L39.844 122.464ZM38.5 112.544L37.5216 112.337L37.5194 112.348L38.5 112.544ZM42.852 92V91H42.0416L41.8737 91.7928L42.852 92ZM52.068 92L53.0463 92.2072L53.3019 91H52.068V92ZM47.46 113.76L48.4262 114.018L48.4329 113.993L48.4383 113.967L47.46 113.76ZM47.78 117.664L47.0729 118.371L47.1121 118.41L47.1553 118.445L47.78 117.664ZM53.284 116.64L53.9765 117.361L53.9839 117.354L53.9911 117.347L53.284 116.64ZM55.588 112.544V111.544H54.831L54.6256 112.273L55.588 112.544ZM58.276 112.544L59.222 112.868L59.6757 111.544H58.276V112.544ZM52.196 121.952L52.7441 122.789L52.754 122.782L52.196 121.952ZM49.188 87.544C48.0409 87.544 47.1019 87.1556 46.3111 86.3649L44.8969 87.7791C46.0688 88.951 47.5191 89.544 49.188 89.544V87.544ZM46.3111 86.3649C45.5204 85.5741 45.132 84.6351 45.132 83.488H43.132C43.132 85.1569 43.725 86.6072 44.8969 87.7791L46.3111 86.3649ZM45.132 83.488C45.132 82.3409 45.5204 81.4019 46.3111 80.6111L44.8969 79.1969C43.725 80.3688 43.132 81.8191 43.132 83.488H45.132ZM46.326 80.5959C47.1203 79.7671 48.0548 79.368 49.188 79.368V77.368C47.5052 77.368 46.0504 77.9929 44.882 79.2121L46.326 80.5959ZM49.188 79.368C50.3212 79.368 51.2557 79.7671 52.05 80.5959L53.494 79.2121C52.3256 77.9929 50.8708 77.368 49.188 77.368V79.368ZM52.0801 80.626C52.9089 81.4203 53.308 82.3548 53.308 83.488H55.308C55.308 81.8052 54.6831 80.3504 53.4639 79.182L52.0801 80.626ZM53.308 83.488C53.308 84.6212 52.9089 85.5557 52.0801 86.35L53.4639 87.794C54.6831 86.6256 55.308 85.1708 55.308 83.488H53.308ZM52.0649 86.3649C51.2741 87.1556 50.3351 87.544 49.188 87.544V89.544C50.8569 89.544 52.3072 88.951 53.4791 87.7791L52.0649 86.3649ZM44.836 123.384C43.0152 123.384 41.6183 122.824 40.5511 121.757L39.1369 123.171C40.6297 124.664 42.5608 125.384 44.836 125.384V123.384ZM40.563 121.769C39.5718 120.744 38.988 119.118 38.988 116.704H36.988C36.988 119.41 37.6415 121.624 39.125 123.159L40.563 121.769ZM38.988 116.704C38.988 115.731 39.1452 114.417 39.4806 112.74L37.5194 112.348C37.1722 114.084 36.988 115.543 36.988 116.704H38.988ZM39.4783 112.751L43.8303 92.2072L41.8737 91.7928L37.5217 112.337L39.4783 112.751ZM42.852 93H52.068V91H42.852V93ZM51.0897 91.7928L46.4817 113.553L48.4383 113.967L53.0463 92.2072L51.0897 91.7928ZM46.4938 113.502C46.2987 114.234 46.204 115.004 46.204 115.808H48.204C48.204 115.161 48.28 114.566 48.4262 114.018L46.4938 113.502ZM46.204 115.808C46.204 116.78 46.4182 117.716 47.0729 118.371L48.4871 116.957C48.3738 116.844 48.204 116.543 48.204 115.808H46.204ZM47.1553 118.445C47.8477 118.999 48.8098 119.176 49.828 119.176V117.176C48.9689 117.176 48.5657 117.012 48.4047 116.883L47.1553 118.445ZM49.828 119.176C51.3725 119.176 52.7623 118.527 53.9765 117.361L52.5915 115.919C51.6724 116.801 50.7581 117.176 49.828 117.176V119.176ZM53.9911 117.347C55.1955 116.143 56.0415 114.62 56.5504 112.815L54.6256 112.273C54.1958 113.796 53.5059 115.004 52.5769 115.933L53.9911 117.347ZM55.588 113.544H58.276V111.544H55.588V113.544ZM57.33 112.22C55.7809 116.742 53.8488 119.636 51.638 121.122L52.754 122.782C55.4925 120.94 57.6138 117.562 59.222 112.868L57.33 112.22ZM51.648 121.116C49.3006 122.653 47.0347 123.384 44.836 123.384V125.384C47.5013 125.384 50.1421 124.493 52.744 122.788L51.648 121.116ZM88.7145 122.336L87.952 122.983L87.9626 122.995L87.9735 123.008L88.7145 122.336ZM87.2425 114.144L88.2245 114.333L88.2258 114.326L87.2425 114.144ZM87.8825 110.816L86.9101 110.583L86.9057 110.601L86.9019 110.62L87.8825 110.816ZM88.3945 108.768L89.356 109.043L89.3634 109.017L89.3694 108.991L88.3945 108.768ZM89.3545 104.352L88.375 104.15V104.15L89.3545 104.352ZM84.5545 99.232L85.3354 99.8567L85.3413 99.8493L85.3471 99.8417L84.5545 99.232ZM82.5065 103.456L81.5468 103.175L81.5361 103.212L81.5282 103.249L82.5065 103.456ZM78.1545 124V125H78.9649L79.1328 124.207L78.1545 124ZM68.9385 124L67.9602 123.793L67.7048 125H68.9385V124ZM73.6105 101.92L72.6404 101.677L72.6359 101.695L72.6322 101.713L73.6105 101.92ZM68.7465 99.168L67.9686 98.5397L67.9656 98.5433L68.7465 99.168ZM66.6985 103.456L65.737 103.181L65.7274 103.215L65.7202 103.249L66.6985 103.456ZM62.3465 124V125H63.1569L63.3248 124.207L62.3465 124ZM53.1305 124L52.1522 123.793L51.8963 125H53.1305V124ZM59.9145 92V91H59.1043L58.9362 91.7926L59.9145 92ZM69.1305 92L70.1088 92.207L70.3642 91H69.1305V92ZM68.4265 95.328L67.4482 95.121L66.6724 98.7882L69.1717 95.9948L68.4265 95.328ZM82.8265 97.184L81.8414 97.3558L82.2798 99.8696L83.6661 97.7272L82.8265 97.184ZM96.9065 93.536L96.2242 94.2671L96.9065 93.536ZM98.3785 103.136L99.3591 103.332L99.3601 103.327L98.3785 103.136ZM97.0985 108.64L98.0668 108.89L98.0675 108.887L97.0985 108.64ZM96.1385 112.544L95.1647 112.317L95.1618 112.329L95.1592 112.341L96.1385 112.544ZM101.387 116.832L102.146 117.483L102.153 117.474L102.16 117.465L101.387 116.832ZM103.691 112.544V111.544H103.013L102.762 112.173L103.691 112.544ZM106.379 112.544L107.326 112.863L107.77 111.544H106.379V112.544ZM100.874 122.016L101.485 122.808L101.487 122.806L100.874 122.016ZM94.4745 123.384C92.0345 123.384 90.4356 122.746 89.4555 121.664L87.9735 123.008C89.4681 124.657 91.7092 125.384 94.4745 125.384V123.384ZM89.477 121.689C88.4527 120.482 87.9225 118.991 87.9225 117.152H85.9225C85.9225 119.409 86.587 121.374 87.952 122.983L89.477 121.689ZM87.9225 117.152C87.9225 116.333 88.0202 115.395 88.2245 114.333L86.2605 113.955C86.0381 115.111 85.9225 116.179 85.9225 117.152H87.9225ZM88.2258 114.326C88.4383 113.178 88.6507 112.074 88.8631 111.012L86.9019 110.62C86.6876 111.692 86.4734 112.806 86.2592 113.962L88.2258 114.326ZM88.8549 111.049C89.1123 109.977 89.2778 109.317 89.356 109.043L87.433 108.493C87.3406 108.817 87.1647 109.522 86.9101 110.583L88.8549 111.049ZM89.3694 108.991C89.7122 107.491 90.0338 106.012 90.334 104.554L88.375 104.15C88.0779 105.594 87.7594 107.059 87.4196 108.545L89.3694 108.991ZM90.334 104.554C90.6387 103.074 90.8025 101.825 90.8025 100.832H88.8025C88.8025 101.631 88.6677 102.729 88.375 104.15L90.334 104.554ZM90.8025 100.832C90.8025 99.6568 90.6006 98.5966 90.0435 97.8073C89.4413 96.9542 88.5341 96.568 87.4985 96.568V98.568C87.9989 98.568 88.2437 98.7258 88.4095 98.9607C88.6204 99.2594 88.8025 99.8312 88.8025 100.832H90.8025ZM87.4985 96.568C85.9991 96.568 84.75 97.3377 83.7619 98.6223L85.3471 99.8417C86.0657 98.9076 86.7793 98.568 87.4985 98.568V96.568ZM83.7736 98.6073C82.8165 99.8037 82.0838 101.34 81.5468 103.175L83.4662 103.737C83.9532 102.073 84.5858 100.794 85.3354 99.8567L83.7736 98.6073ZM81.5282 103.249L77.1762 123.793L79.1328 124.207L83.4848 103.663L81.5282 103.249ZM78.1545 123H68.9385V125H78.1545V123ZM69.9168 124.207L74.5888 102.127L72.6322 101.713L67.9602 123.793L69.9168 124.207ZM74.5806 102.163C74.7295 101.567 74.8025 100.952 74.8025 100.32H72.8025C72.8025 100.797 72.7475 101.249 72.6404 101.677L74.5806 102.163ZM74.8025 100.32C74.8025 99.2989 74.6341 98.3566 74.1487 97.6447C73.6165 96.8641 72.8043 96.504 71.8825 96.504V98.504C72.2407 98.504 72.3885 98.6132 72.4963 98.7713C72.6509 98.9981 72.8025 99.4638 72.8025 100.32H74.8025ZM71.8825 96.504C70.3262 96.504 69.0136 97.2458 67.9686 98.5397L69.5244 99.7963C70.2714 98.8715 71.0495 98.504 71.8825 98.504V96.504ZM67.9656 98.5433C67.0052 99.7438 66.2729 101.305 65.737 103.181L67.66 103.731C68.148 102.023 68.7811 100.726 69.5274 99.7927L67.9656 98.5433ZM65.7202 103.249L61.3682 123.793L63.3248 124.207L67.6768 103.663L65.7202 103.249ZM62.3465 123H53.1305V125H62.3465V123ZM54.1088 124.207L60.8928 92.2074L58.9362 91.7926L52.1522 123.793L54.1088 124.207ZM59.9145 93H69.1305V91H59.9145V93ZM68.1522 91.793L67.4482 95.121L69.4048 95.535L70.1088 92.207L68.1522 91.793ZM69.1717 95.9948C71.1745 93.7564 73.5135 92.68 76.2345 92.68V90.68C72.8968 90.68 70.0305 92.0356 67.6813 94.6612L69.1717 95.9948ZM76.2345 92.68C77.9515 92.68 79.1883 93.0978 80.0576 93.8236C80.9259 94.5486 81.5496 95.6828 81.8414 97.3558L83.8116 97.0122C83.4634 95.0158 82.6685 93.3981 81.3394 92.2884C80.0114 91.1795 78.2722 90.68 76.2345 90.68V92.68ZM83.6661 97.7272C85.8721 94.3179 88.5509 92.744 91.7225 92.744V90.744C87.7261 90.744 84.4742 92.7967 81.9869 96.6407L83.6661 97.7272ZM91.7225 92.744C93.7096 92.744 95.1716 93.2846 96.2242 94.2671L97.5888 92.8049C96.0814 91.398 94.0874 90.744 91.7225 90.744V92.744ZM96.2242 94.2671C97.2326 95.2083 97.8265 96.7102 97.8265 98.976H99.8265C99.8265 96.3778 99.1404 94.2531 97.5888 92.8049L96.2242 94.2671ZM97.8265 98.976C97.8265 100.135 97.6864 101.456 97.3969 102.945L99.3601 103.327C99.668 101.744 99.8265 100.292 99.8265 98.976H97.8265ZM97.3979 102.94C97.1039 104.41 96.6817 106.227 96.1295 108.393L98.0675 108.887C98.6247 106.701 99.0558 104.848 99.3591 103.332L97.3979 102.94ZM96.1302 108.39C95.787 109.72 95.4652 111.029 95.1647 112.317L97.1123 112.771C97.4092 111.499 97.7273 110.205 98.0668 108.89L96.1302 108.39ZM95.1592 112.341C94.898 113.604 94.7545 114.663 94.7545 115.488H96.7545C96.7545 114.863 96.867 113.959 97.1178 112.747L95.1592 112.341ZM94.7545 115.488C94.7545 116.48 94.9769 117.397 95.5565 118.105L97.1045 116.839C96.9161 116.609 96.7545 116.203 96.7545 115.488H94.7545ZM95.5565 118.105C96.215 118.91 97.2415 119.176 98.3145 119.176V117.176C97.5101 117.176 97.214 116.973 97.1045 116.839L95.5565 118.105ZM98.3145 119.176C99.8585 119.176 101.17 118.621 102.146 117.483L100.627 116.181C100.067 116.835 99.3305 117.176 98.3145 117.176V119.176ZM102.16 117.465C103.023 116.411 103.836 114.873 104.619 112.915L102.762 112.173C102.009 114.055 101.286 115.375 100.613 116.199L102.16 117.465ZM103.691 113.544H106.379V111.544H103.691V113.544ZM105.431 112.225C103.868 116.871 102.111 119.791 100.262 121.226L101.487 122.806C103.819 120.998 105.732 117.604 107.326 112.863L105.431 112.225ZM100.264 121.224C98.3608 122.691 96.437 123.384 94.4745 123.384V125.384C96.9493 125.384 99.2922 124.498 101.485 122.808L100.264 121.224ZM105.032 122.464L104.313 123.159L104.318 123.165L104.324 123.171L105.032 122.464ZM103.688 112.544L102.709 112.337L102.707 112.348L103.688 112.544ZM108.039 92V91H107.229L107.061 91.7928L108.039 92ZM117.256 92L118.234 92.2072L118.489 91H117.256V92ZM112.647 113.76L111.669 113.553L111.667 113.564L112.647 113.76ZM117.448 116.704L118.202 117.36L118.209 117.352L118.216 117.344L117.448 116.704ZM119.495 112.544L120.455 112.825L120.466 112.788L120.474 112.751L119.495 112.544ZM123.848 92V91H123.037L122.869 91.7928L123.848 92ZM133.064 92L134.042 92.2072L134.297 91H133.064V92ZM128.456 113.76L129.422 114.018L129.428 113.993L129.434 113.967L128.456 113.76ZM128.775 117.664L128.068 118.371L128.108 118.41L128.151 118.445L128.775 117.664ZM133.896 116.64L133.143 115.981L133.135 115.991L133.127 116L133.896 116.64ZM136.008 112.544V111.544H135.263L135.05 112.257L136.008 112.544ZM138.695 112.544L139.642 112.868L140.095 111.544H138.695V112.544ZM132.807 121.952L133.383 122.77L133.386 122.768L132.807 121.952ZM121.415 122.848L120.723 123.569L120.73 123.576L120.737 123.583L121.415 122.848ZM119.495 118.304L120.49 118.198L120.181 115.294L118.645 117.778L119.495 118.304ZM114.887 123.104L114.422 122.219L114.412 122.224L114.887 123.104ZM110.023 123.384C108.203 123.384 106.806 122.824 105.739 121.757L104.324 123.171C105.817 124.664 107.748 125.384 110.023 125.384V123.384ZM105.75 121.769C104.759 120.744 104.175 119.118 104.175 116.704H102.175C102.175 119.41 102.829 121.624 104.313 123.159L105.75 121.769ZM104.175 116.704C104.175 115.731 104.333 114.417 104.668 112.74L102.707 112.348C102.36 114.084 102.175 115.543 102.175 116.704H104.175ZM104.666 112.751L109.018 92.2072L107.061 91.7928L102.709 112.337L104.666 112.751ZM108.039 93H117.256V91H108.039V93ZM116.277 91.7928L111.669 113.553L113.626 113.967L118.234 92.2072L116.277 91.7928ZM111.667 113.564C111.528 114.257 111.455 114.921 111.455 115.552H113.455C113.455 115.074 113.511 114.543 113.628 113.956L111.667 113.564ZM111.455 115.552C111.455 116.519 111.627 117.425 112.128 118.111C112.672 118.854 113.482 119.176 114.376 119.176V117.176C113.989 117.176 113.839 117.061 113.743 116.929C113.604 116.74 113.455 116.334 113.455 115.552H111.455ZM114.376 119.176C115.887 119.176 117.178 118.538 118.202 117.36L116.693 116.048C116.011 116.833 115.253 117.176 114.376 117.176V119.176ZM118.216 117.344C119.183 116.184 119.918 114.66 120.455 112.825L118.536 112.263C118.049 113.926 117.419 115.176 116.679 116.064L118.216 117.344ZM120.474 112.751L124.826 92.2072L122.869 91.7928L118.517 112.337L120.474 112.751ZM123.848 93H133.064V91H123.848V93ZM132.085 91.7928L127.477 113.553L129.434 113.967L134.042 92.2072L132.085 91.7928ZM127.489 113.502C127.294 114.234 127.2 115.004 127.2 115.808H129.199C129.199 115.161 129.275 114.566 129.422 114.018L127.489 113.502ZM127.2 115.808C127.2 116.78 127.414 117.716 128.068 118.371L129.483 116.957C129.369 116.844 129.199 116.543 129.199 115.808H127.2ZM128.151 118.445C128.843 118.999 129.805 119.176 130.824 119.176V117.176C129.964 117.176 129.561 117.012 129.4 116.883L128.151 118.445ZM130.824 119.176C132.352 119.176 133.645 118.502 134.664 117.28L133.127 116C132.439 116.826 131.685 117.176 130.824 117.176V119.176ZM134.648 117.299C135.663 116.139 136.424 114.634 136.965 112.831L135.05 112.257C134.567 113.867 133.92 115.093 133.143 115.981L134.648 117.299ZM136.008 113.544H138.695V111.544H136.008V113.544ZM137.749 112.22C136.196 116.753 134.322 119.652 132.229 121.136L133.386 122.768C135.986 120.924 138.037 117.551 139.642 112.868L137.749 112.22ZM132.232 121.134C130.062 122.661 127.934 123.384 125.831 123.384V125.384C128.423 125.384 130.945 124.485 133.383 122.77L132.232 121.134ZM125.831 123.384C124.191 123.384 122.98 122.932 122.094 122.113L120.737 123.583C122.069 124.812 123.802 125.384 125.831 125.384V123.384ZM122.108 122.127C121.264 121.317 120.687 120.054 120.49 118.198L118.501 118.41C118.73 120.564 119.433 122.331 120.723 123.569L122.108 122.127ZM118.645 117.778C117.244 120.044 115.825 121.481 114.422 122.219L115.353 123.989C117.193 123.021 118.845 121.257 120.346 118.83L118.645 117.778ZM114.412 122.224C112.968 123.005 111.509 123.384 110.023 123.384V125.384C111.866 125.384 113.65 124.91 115.363 123.984L114.412 122.224ZM137.344 122.464L136.625 123.159L136.631 123.165L136.637 123.171L137.344 122.464ZM136 112.544L135.022 112.335L135.019 112.348L136 112.544ZM142.848 80.48L142.714 79.489L142.017 79.5832L141.87 80.2711L142.848 80.48ZM152.32 79.2L153.298 79.4083L153.594 78.0187L152.186 78.209L152.32 79.2ZM144.96 113.76L145.926 114.018L145.933 113.993L145.938 113.968L144.96 113.76ZM145.28 117.664L144.573 118.371L144.612 118.41L144.655 118.445L145.28 117.664ZM150.784 116.64L151.477 117.361L151.484 117.354L151.491 117.347L150.784 116.64ZM153.088 112.544V111.544H152.331L152.126 112.273L153.088 112.544ZM155.776 112.544L156.722 112.868L157.176 111.544H155.776V112.544ZM149.696 121.952L150.244 122.789L150.254 122.782L149.696 121.952ZM142.336 123.384C140.515 123.384 139.118 122.824 138.051 121.757L136.637 123.171C138.13 124.664 140.061 125.384 142.336 125.384V123.384ZM138.063 121.769C137.072 120.744 136.488 119.118 136.488 116.704H134.488C134.488 119.41 135.142 121.624 136.625 123.159L138.063 121.769ZM136.488 116.704C136.488 115.731 136.645 114.417 136.981 112.74L135.019 112.348C134.672 114.084 134.488 115.543 134.488 116.704H136.488ZM136.978 112.753L143.826 80.6889L141.87 80.2711L135.022 112.335L136.978 112.753ZM142.982 81.471L152.454 80.191L152.186 78.209L142.714 79.489L142.982 81.471ZM151.342 78.9917L143.982 113.552L145.938 113.968L153.298 79.4083L151.342 78.9917ZM143.994 113.502C143.799 114.234 143.704 115.004 143.704 115.808H145.704C145.704 115.161 145.78 114.566 145.926 114.018L143.994 113.502ZM143.704 115.808C143.704 116.78 143.918 117.716 144.573 118.371L145.987 116.957C145.874 116.844 145.704 116.543 145.704 115.808H143.704ZM144.655 118.445C145.348 118.999 146.31 119.176 147.328 119.176V117.176C146.469 117.176 146.066 117.012 145.905 116.883L144.655 118.445ZM147.328 119.176C148.873 119.176 150.262 118.527 151.477 117.361L150.091 115.919C149.172 116.801 148.258 117.176 147.328 117.176V119.176ZM151.491 117.347C152.695 116.143 153.542 114.62 154.05 112.815L152.126 112.273C151.696 113.796 151.006 115.004 150.077 115.933L151.491 117.347ZM153.088 113.544H155.776V111.544H153.088V113.544ZM154.83 112.22C153.281 116.742 151.349 119.636 149.138 121.122L150.254 122.782C152.993 120.94 155.114 117.562 156.722 112.868L154.83 112.22ZM149.148 121.116C146.801 122.653 144.535 123.384 142.336 123.384V125.384C145.001 125.384 147.642 124.493 150.244 122.788L149.148 121.116ZM154.663 121.888L153.946 122.586L154.663 121.888ZM154.087 104.16L153.147 103.816L153.145 103.823L154.087 104.16ZM159.719 95.328L160.413 96.0474L160.413 96.0472L159.719 95.328ZM172.583 92.576L173.156 91.7568L172.583 92.576ZM173.863 95.392H172.863L174.842 95.5952L173.863 95.392ZM174.566 92V91H173.753L173.587 91.7968L174.566 92ZM183.783 92L184.761 92.2072L185.016 91H183.783V92ZM179.174 113.76L180.141 114.018L180.147 113.993L180.153 113.967L179.174 113.76ZM184.615 116.896L183.837 116.268L183.829 116.277L183.822 116.286L184.615 116.896ZM186.727 112.544V111.544H185.972L185.765 112.269L186.727 112.544ZM189.415 112.544L190.361 112.868L190.814 111.544H189.415V112.544ZM183.527 121.952L184.102 122.77L184.105 122.768L183.527 121.952ZM172.199 122.912L171.506 123.633L171.521 123.647L171.536 123.661L172.199 122.912ZM170.279 118.496L171.272 118.386L170.982 115.77L169.462 117.919L170.279 118.496ZM166.118 122.784L166.7 123.598L166.704 123.595L166.118 122.784ZM168.038 116.704L168.73 117.426L168.731 117.425L168.038 116.704ZM170.215 112.544L171.191 112.758L171.193 112.752L170.215 112.544ZM173.286 98.08L174.265 98.2878L174.286 98.185V98.08H173.286ZM172.646 96.48L171.854 97.0897L171.866 97.1052L171.878 97.1202L172.646 96.48ZM166.055 98.656L166.875 99.2271L166.881 99.2188L166.055 98.656ZM162.855 105.824L163.818 106.091L163.819 106.087L162.855 105.824ZM162.598 117.28L161.891 117.987L161.904 117.999L161.916 118.011L162.598 117.28ZM160.742 123.384C158.566 123.384 156.802 122.651 155.379 121.19L153.946 122.586C155.765 124.453 158.055 125.384 160.742 125.384V123.384ZM155.379 121.19C154.015 119.791 153.23 117.494 153.23 114.08H151.23C151.23 117.748 152.067 120.657 153.946 122.586L155.379 121.19ZM153.23 114.08C153.23 111.055 153.823 107.862 155.028 104.497L153.145 103.823C151.875 107.37 151.23 110.791 151.23 114.08H153.23ZM155.026 104.504C156.258 101.135 158.056 98.323 160.413 96.0474L159.024 94.6086C156.431 97.1116 154.475 100.188 153.147 103.816L155.026 104.504ZM160.413 96.0472C162.747 93.7927 165.485 92.68 168.678 92.68V90.68C164.96 90.68 161.725 91.9993 159.024 94.6088L160.413 96.0472ZM168.678 92.68C170.348 92.68 171.403 92.9713 172.009 93.3952L173.156 91.7568C172.055 90.986 170.508 90.68 168.678 90.68V92.68ZM172.009 93.3952C172.614 93.819 172.863 94.312 172.863 94.944H174.863C174.863 93.6134 174.257 92.5277 173.156 91.7568L172.009 93.3952ZM172.863 94.944V95.392H174.863V94.944H172.863ZM174.842 95.5952L175.546 92.2032L173.587 91.7968L172.883 95.1888L174.842 95.5952ZM174.566 93H183.783V91H174.566V93ZM182.804 91.7928L178.196 113.553L180.153 113.967L184.761 92.2072L182.804 91.7928ZM178.208 113.502C178.013 114.234 177.919 115.004 177.919 115.808H179.919C179.919 115.161 179.994 114.566 180.141 114.018L178.208 113.502ZM177.919 115.808C177.919 116.868 178.17 117.848 178.851 118.562C179.54 119.285 180.501 119.56 181.542 119.56V117.56C180.834 117.56 180.484 117.377 180.298 117.182C180.104 116.978 179.919 116.583 179.919 115.808H177.919ZM181.542 119.56C183.103 119.56 184.401 118.814 185.407 117.506L183.822 116.286C183.121 117.197 182.371 117.56 181.542 117.56V119.56ZM185.392 117.524C186.394 116.284 187.15 114.702 187.688 112.819L185.765 112.269C185.279 113.97 184.627 115.289 183.837 116.268L185.392 117.524ZM186.727 113.544H189.415V111.544H186.727V113.544ZM188.468 112.22C186.915 116.753 185.041 119.652 182.948 121.136L184.105 122.768C186.705 120.924 188.756 117.551 190.361 112.868L188.468 112.22ZM182.951 121.134C180.781 122.661 178.653 123.384 176.551 123.384V125.384C179.142 125.384 181.664 124.485 184.102 122.77L182.951 121.134ZM176.551 123.384C174.949 123.384 173.751 122.95 172.861 122.163L171.536 123.661C172.865 124.836 174.568 125.384 176.551 125.384V123.384ZM172.891 122.191C172.039 121.373 171.468 120.145 171.272 118.386L169.285 118.606C169.516 120.687 170.225 122.403 171.506 123.633L172.891 122.191ZM169.462 117.919C168.28 119.59 166.969 120.936 165.533 121.973L166.704 123.595C168.34 122.413 169.802 120.901 171.095 119.073L169.462 117.919ZM165.537 121.97C164.237 122.899 162.655 123.384 160.742 123.384V125.384C163.011 125.384 165.014 124.802 166.7 123.598L165.537 121.97ZM164.902 119.176C166.303 119.176 167.583 118.525 168.73 117.426L167.347 115.982C166.446 116.845 165.636 117.176 164.902 117.176V119.176ZM168.731 117.425C169.968 116.238 170.774 114.66 171.191 112.758L169.238 112.33C168.887 113.927 168.242 115.122 167.346 115.983L168.731 117.425ZM171.193 112.752L174.265 98.2878L172.308 97.8722L169.236 112.336L171.193 112.752ZM174.286 98.08C174.286 97.2466 173.96 96.4938 173.415 95.8398L171.878 97.1202C172.187 97.4902 172.286 97.8041 172.286 98.08H174.286ZM173.439 95.8703C172.772 95.0027 171.774 94.648 170.663 94.648V96.648C171.343 96.648 171.668 96.8479 171.854 97.0897L173.439 95.8703ZM170.663 94.648C168.499 94.648 166.695 95.9386 165.228 98.0932L166.881 99.2188C168.145 97.3627 169.413 96.648 170.663 96.648V94.648ZM165.234 98.0849C163.79 100.159 162.681 102.658 161.89 105.561L163.819 106.087C164.564 103.358 165.588 101.078 166.875 99.2271L165.234 98.0849ZM161.891 105.557C161.106 108.389 160.702 110.935 160.702 113.184H162.702C162.702 111.166 163.067 108.805 163.818 106.091L161.891 105.557ZM160.702 113.184C160.702 114.289 160.779 115.242 160.95 116.022C161.116 116.781 161.395 117.491 161.891 117.987L163.306 116.573C163.204 116.472 163.036 116.2 162.903 115.594C162.775 115.008 162.702 114.212 162.702 113.184H160.702ZM161.916 118.011C162.746 118.786 163.76 119.176 164.902 119.176V117.176C164.253 117.176 163.731 116.969 163.281 116.549L161.916 118.011ZM188.094 122.464L187.375 123.159L187.381 123.165L187.387 123.171L188.094 122.464ZM186.75 112.544L185.772 112.335L185.769 112.348L186.75 112.544ZM190.59 94.56L191.568 94.7688L191.826 93.56H190.59V94.56ZM188.478 94.56L187.497 94.3639L187.258 95.56H188.478V94.56ZM188.99 92V91H188.17L188.009 91.8039L188.99 92ZM191.102 92V93H191.908L192.079 92.2124L191.102 92ZM193.022 83.168L192.888 82.177L192.194 82.2708L192.045 82.9556L193.022 83.168ZM202.494 81.888L203.472 82.0984L203.771 80.7063L202.36 80.897L202.494 81.888ZM200.318 92L199.34 91.7896L199.08 93H200.318V92ZM204.158 92L205.139 92.1961L205.378 91H204.158V92ZM203.646 94.56V95.56H204.466L204.627 94.7561L203.646 94.56ZM199.806 94.56V93.56H198.997L198.828 94.3514L199.806 94.56ZM195.71 113.76L196.676 114.018L196.683 113.993L196.688 113.969L195.71 113.76ZM196.03 117.664L195.323 118.371L195.362 118.41L195.405 118.445L196.03 117.664ZM201.534 116.64L202.227 117.361L202.234 117.354L202.241 117.347L201.534 116.64ZM203.838 112.544V111.544H203.081L202.876 112.273L203.838 112.544ZM206.526 112.544L207.472 112.868L207.926 111.544H206.526V112.544ZM200.446 121.952L200.994 122.789L201.004 122.782L200.446 121.952ZM193.086 123.384C191.265 123.384 189.868 122.824 188.801 121.757L187.387 123.171C188.88 124.664 190.811 125.384 193.086 125.384V123.384ZM188.813 121.769C187.822 120.744 187.238 119.118 187.238 116.704H185.238C185.238 119.41 185.892 121.624 187.375 123.159L188.813 121.769ZM187.238 116.704C187.238 115.731 187.395 114.417 187.731 112.74L185.769 112.348C185.422 114.084 185.238 115.543 185.238 116.704H187.238ZM187.728 112.753L191.568 94.7688L189.612 94.3512L185.772 112.335L187.728 112.753ZM190.59 93.56H188.478V95.56H190.59V93.56ZM189.459 94.7561L189.971 92.1961L188.009 91.8039L187.497 94.3639L189.459 94.7561ZM188.99 93H191.102V91H188.99V93ZM192.079 92.2124L193.999 83.3804L192.045 82.9556L190.125 91.7876L192.079 92.2124ZM193.156 84.159L202.628 82.879L202.36 80.897L192.888 82.177L193.156 84.159ZM201.516 81.6776L199.34 91.7896L201.296 92.2104L203.472 82.0984L201.516 81.6776ZM200.318 93H204.158V91H200.318V93ZM203.177 91.8039L202.665 94.3639L204.627 94.7561L205.139 92.1961L203.177 91.8039ZM203.646 93.56H199.806V95.56H203.646V93.56ZM198.828 94.3514L194.732 113.551L196.688 113.969L200.784 94.7686L198.828 94.3514ZM194.744 113.502C194.549 114.234 194.454 115.004 194.454 115.808H196.454C196.454 115.161 196.53 114.566 196.676 114.018L194.744 113.502ZM194.454 115.808C194.454 116.78 194.668 117.716 195.323 118.371L196.737 116.957C196.624 116.844 196.454 116.543 196.454 115.808H194.454ZM195.405 118.445C196.098 118.999 197.06 119.176 198.078 119.176V117.176C197.219 117.176 196.816 117.012 196.655 116.883L195.405 118.445ZM198.078 119.176C199.623 119.176 201.012 118.527 202.227 117.361L200.841 115.919C199.922 116.801 199.008 117.176 198.078 117.176V119.176ZM202.241 117.347C203.445 116.143 204.292 114.62 204.8 112.815L202.876 112.273C202.446 113.796 201.756 115.004 200.827 115.933L202.241 117.347ZM203.838 113.544H206.526V111.544H203.838V113.544ZM205.58 112.22C204.031 116.742 202.099 119.636 199.888 121.122L201.004 122.782C203.743 120.94 205.864 117.562 207.472 112.868L205.58 112.22ZM199.898 121.116C197.551 122.653 195.285 123.384 193.086 123.384V125.384C195.751 125.384 198.392 124.493 200.994 122.788L199.898 121.116ZM205.669 121.824L205.006 122.573L205.669 121.824ZM204.708 104.48L205.656 104.8L204.708 104.48ZM210.469 95.328L211.164 96.0466L211.17 96.0408L210.469 95.328ZM228.645 101.728H227.645V102.449L228.328 102.677L228.645 101.728ZM234.212 100.704L234.58 101.634L234.589 101.63L234.599 101.626L234.212 100.704ZM239.204 97.952L240.153 97.6358L239.725 96.3513L238.623 97.1383L239.204 97.952ZM239.781 99.68L240.511 100.363L240.917 99.9285L240.729 99.3638L239.781 99.68ZM234.917 103.072L235.332 103.982L235.34 103.978L234.917 103.072ZM228.452 104.992L228.291 104.005L227.524 104.131L227.456 104.904L228.452 104.992ZM225.829 115.168L224.929 114.731L225.829 115.168ZM220.389 121.888L219.809 121.073L220.389 121.888ZM218.788 116.768L219.536 117.432L219.542 117.426L219.548 117.419L218.788 116.768ZM221.477 111.968L222.41 112.326L222.413 112.319L221.477 111.968ZM223.141 105.184L224.131 105.321L224.257 104.408L223.357 104.208L223.141 105.184ZM223.396 99.04L223.783 99.9622L224.438 99.6878L224.395 98.9795L223.396 99.04ZM222.757 96.16L221.905 96.6841L221.914 96.6996L221.924 96.7147L222.757 96.16ZM216.868 98.4L217.709 98.9425L216.868 98.4ZM213.669 105.76L214.631 106.033L213.669 105.76ZM213.156 117.472L212.317 118.015L212.325 118.027L212.332 118.039L213.156 117.472ZM213.156 123.256C210.171 123.256 207.935 122.492 206.331 121.075L205.006 122.573C207.072 124.398 209.828 125.256 213.156 125.256V123.256ZM206.331 121.075C204.79 119.713 203.917 117.482 203.917 114.144H201.917C201.917 117.803 202.878 120.692 205.006 122.573L206.331 121.075ZM203.917 114.144C203.917 111.378 204.487 108.266 205.656 104.8L203.761 104.16C202.541 107.777 201.917 111.108 201.917 114.144H203.917ZM205.656 104.8C206.801 101.407 208.635 98.4939 211.164 96.0466L209.773 94.6094C207.011 97.2821 205.006 100.47 203.761 104.16L205.656 104.8ZM211.17 96.0408C213.612 93.6379 216.681 92.424 220.452 92.424V90.424C216.203 90.424 212.616 91.8127 209.767 94.6152L211.17 96.0408ZM220.452 92.424C222.962 92.424 224.687 93.1973 225.816 94.6087C226.979 96.0627 227.645 98.3575 227.645 101.664H229.645C229.645 98.1438 228.945 95.3186 227.377 93.3593C225.776 91.3574 223.404 90.424 220.452 90.424V92.424ZM227.645 101.664V101.728H229.645V101.664H227.645ZM228.328 102.677C228.629 102.777 229.015 102.792 229.348 102.792V100.792C229.196 100.792 229.084 100.787 229.007 100.78C228.969 100.777 228.946 100.773 228.934 100.771C228.921 100.769 228.933 100.77 228.961 100.779L228.328 102.677ZM229.348 102.792C230.922 102.792 232.672 102.388 234.58 101.634L233.845 99.774C232.084 100.47 230.591 100.792 229.348 100.792V102.792ZM234.599 101.626C236.496 100.832 238.227 99.8793 239.786 98.7657L238.623 97.1383C237.196 98.1581 235.598 99.04 233.826 99.7816L234.599 101.626ZM238.256 98.2682L238.832 99.9962L240.729 99.3638L240.153 97.6358L238.256 98.2682ZM239.05 98.9968C237.917 100.208 236.407 101.27 234.493 102.166L235.34 103.978C237.436 102.997 239.169 101.797 240.511 100.363L239.05 98.9968ZM234.501 102.162C232.627 103.018 230.559 103.634 228.291 104.005L228.614 105.979C231.039 105.582 233.281 104.918 235.332 103.982L234.501 102.162ZM227.456 104.904C227.124 108.69 226.274 111.96 224.929 114.731L226.728 115.605C228.199 112.574 229.099 109.059 229.449 105.08L227.456 104.904ZM224.929 114.731C223.581 117.51 221.868 119.608 219.809 121.073L220.968 122.703C223.347 121.01 225.26 118.629 226.728 115.605L224.929 114.731ZM219.809 121.073C217.751 122.537 215.541 123.256 213.156 123.256V125.256C215.977 125.256 218.589 124.396 220.968 122.703L219.809 121.073ZM215.717 119.496C217.145 119.496 218.419 118.689 219.536 117.432L218.041 116.104C217.11 117.151 216.336 117.496 215.717 117.496V119.496ZM219.548 117.419C220.668 116.112 221.615 114.402 222.41 112.326L220.543 111.61C219.802 113.545 218.957 115.035 218.029 116.117L219.548 117.419ZM222.413 112.319C223.21 110.193 223.781 107.858 224.131 105.321L222.15 105.047C221.817 107.459 221.279 109.647 220.54 111.617L222.413 112.319ZM223.357 104.208C223.008 104.13 222.815 103.981 222.686 103.779C222.538 103.549 222.413 103.153 222.413 102.496H220.413C220.413 103.375 220.575 104.195 221.003 104.861C221.45 105.555 222.121 105.982 222.924 106.16L223.357 104.208ZM222.413 102.496C222.413 101.742 222.555 101.202 222.776 100.818C222.988 100.448 223.307 100.162 223.783 99.9622L223.01 98.1178C222.163 98.4728 221.49 99.0403 221.041 99.8221C220.6 100.59 220.413 101.5 220.413 102.496H222.413ZM224.395 98.9795C224.35 98.2434 224.271 97.5954 224.149 97.0471C224.029 96.51 223.856 96.0069 223.589 95.6053L221.924 96.7147C221.998 96.8251 222.102 97.058 222.196 97.4809C222.288 97.8926 222.358 98.4286 222.398 99.1005L224.395 98.9795ZM223.608 95.6359C223.029 94.6947 222.043 94.328 220.965 94.328V96.328C221.593 96.328 221.801 96.516 221.905 96.6841L223.608 95.6359ZM220.965 94.328C219.027 94.328 217.401 95.7328 216.028 97.8575L217.709 98.9425C218.982 96.9712 220.086 96.328 220.965 96.328V94.328ZM216.028 97.8575C214.642 100.005 213.538 102.553 212.706 105.487L214.631 106.033C215.42 103.25 216.45 100.891 217.709 98.9425L216.028 97.8575ZM212.706 105.487C211.879 108.405 211.452 111.017 211.452 113.312H213.452C213.452 111.255 213.837 108.833 214.631 106.033L212.706 105.487ZM211.452 113.312C211.452 114.369 211.513 115.288 211.643 116.055C211.77 116.808 211.976 117.489 212.317 118.015L213.996 116.929C213.867 116.73 213.722 116.354 213.614 115.721C213.51 115.102 213.452 114.303 213.452 113.312H211.452ZM212.332 118.039C213.068 119.108 214.321 119.496 215.717 119.496V117.496C214.637 117.496 214.184 117.201 213.981 116.905L212.332 118.039ZM236.29 92V91H235.479L235.311 91.7926L236.29 92ZM245.505 92L246.484 92.2052L246.737 91H245.505V92ZM244.674 95.968L243.695 95.7628L243.077 98.7106L245.335 96.7178L244.674 95.968ZM248.577 93.024L248.081 92.1558L248.074 92.1597L248.068 92.1637L248.577 93.024ZM255.617 93.408L254.844 94.0412L254.852 94.0515L254.861 94.0616L255.617 93.408ZM255.617 100.064L254.861 99.4104L255.617 100.064ZM250.305 100.832L249.462 101.369L249.491 101.414L249.525 101.457L250.305 100.832ZM249.602 98.848L250.582 98.6519L250.579 98.6375L250.576 98.6231L249.602 98.848ZM249.217 97.632L250.112 97.1848V97.1848L249.217 97.632ZM246.21 97.824L246.706 98.6922L246.715 98.687L246.724 98.6815L246.21 97.824ZM243.842 99.68L243.167 98.9415L242.929 99.1587L242.863 99.474L243.842 99.68ZM238.721 124V125H239.533L239.7 124.206L238.721 124ZM229.505 124L228.527 123.793L228.271 125H229.505V124ZM236.29 93H245.505V91H236.29V93ZM244.527 91.7948L243.695 95.7628L245.652 96.1732L246.484 92.2052L244.527 91.7948ZM245.335 96.7178C246.758 95.4628 248.007 94.5243 249.087 93.8843L248.068 92.1637C246.844 92.889 245.491 93.9132 244.012 95.2182L245.335 96.7178ZM249.074 93.8922C250.118 93.2952 251.228 93 252.417 93V91C250.877 91 249.426 91.3875 248.081 92.1558L249.074 93.8922ZM252.417 93C253.525 93 254.291 93.3658 254.844 94.0412L256.391 92.7748C255.408 91.5729 254.04 91 252.417 91V93ZM254.861 94.0616C255.504 94.806 255.833 95.7 255.833 96.8H257.833C257.833 95.2546 257.353 93.8873 256.374 92.7544L254.861 94.0616ZM255.833 96.8C255.833 97.7967 255.515 98.6529 254.861 99.4104L256.374 100.718C257.341 99.5978 257.833 98.278 257.833 96.8H255.833ZM254.861 99.4104C254.273 100.091 253.44 100.472 252.225 100.472V102.472C253.912 102.472 255.341 101.914 256.374 100.718L254.861 99.4104ZM252.225 100.472C251.38 100.472 251.137 100.27 251.086 100.207L249.525 101.457C250.157 102.247 251.194 102.472 252.225 102.472V100.472ZM251.149 100.295C250.943 99.9718 250.741 99.4448 250.582 98.6519L248.621 99.0441C248.804 99.9579 249.07 100.754 249.462 101.369L251.149 100.295ZM250.576 98.6231C250.444 98.0514 250.295 97.5509 250.112 97.1848L248.323 98.0792C248.396 98.2251 248.503 98.5352 248.627 99.0729L250.576 98.6231ZM250.112 97.1848C249.963 96.8878 249.734 96.6349 249.424 96.4661C249.125 96.3028 248.806 96.248 248.514 96.248V98.248C248.562 98.248 248.531 98.2572 248.467 98.2219C248.434 98.2042 248.402 98.18 248.374 98.1506C248.347 98.1217 248.331 98.0955 248.323 98.0792L250.112 97.1848ZM248.514 96.248C247.473 96.248 246.519 96.4721 245.695 96.9665L246.724 98.6815C247.18 98.4079 247.762 98.248 248.514 98.248V96.248ZM245.713 96.9558C245.018 97.3534 244.163 98.0327 243.167 98.9415L244.516 100.418C245.483 99.5353 246.207 98.9773 246.706 98.6922L245.713 96.9558ZM242.863 99.474L237.743 123.794L239.7 124.206L244.82 99.886L242.863 99.474ZM238.721 123H229.505V125H238.721V123ZM230.484 124.207L237.268 92.2074L235.311 91.7926L228.527 123.793L230.484 124.207Z" fill="#FF0909"/>
<defs>
<linearGradient id="paint0_linear_109_1007" x1="129" y1="0" x2="129" y2="150" gradientUnits="userSpaceOnUse">
<stop stop-color="#0447B5" stop-opacity="0.68"/>
<stop offset="1" stop-color="#58046C" stop-opacity="0.8"/>
</linearGradient>
</defs>
</svg>
